<svg width="217" height="48" viewBox="0 0 217 48" fill="none" xmlns="http://www.w3.org/2000/svg">
<g clip-path="url(#clip0_2_18)">
<mask id="mask0_2_18" style="mask-type:luminance" maskUnits="userSpaceOnUse" x="0" y="0" width="217" height="48">
<path d="M217 0H0V47.4568H217V0Z" fill="white"/>
</mask>
<g mask="url(#mask0_2_18)">
<path d="M117.125 21.1194C117.125 24.2529 116.698 26.3876 115.816 27.5167C114.934 28.6458 113.3 29.2238 110.865 29.2238C110.183 29.2444 109.506 29.1048 108.888 28.8162C108.296 28.5389 108.002 28.1481 108.002 27.7071C108.005 27.5657 108.04 27.4269 108.105 27.3012C108.17 27.1755 108.263 27.0664 108.376 26.9822C108.668 26.7584 109.028 26.6406 109.395 26.6482C109.502 26.7951 109.796 26.882 110.304 26.882C111.617 26.882 112.285 25.8364 112.285 23.7251C112.258 21.8911 112.258 18.8645 112.258 14.642C112.289 14.1905 112.171 13.7414 111.924 13.3625L111.841 13.2422C112.818 12.9681 113.832 12.8453 114.847 12.8781C115.448 12.8452 116.047 12.9707 116.584 13.2422C116.738 13.3465 116.854 13.496 116.918 13.6699C117.044 13.9884 117.098 14.3303 117.079 14.672L117.125 21.1194Z" fill="#023832"/>
<path d="M132.94 20.8121C132.94 23.1939 132.325 25.1549 131.066 26.6715C129.649 28.412 127.668 29.2939 125.153 29.2939C122.931 29.2939 121.248 28.6258 120.069 27.2895C118.889 25.9533 118.278 23.9489 118.278 21.3499C118.274 19.9317 118.537 18.5253 119.053 17.2042C119.591 15.9431 120.484 14.8652 121.622 14.1008C122.918 13.2579 124.436 12.8195 125.981 12.8414C128.15 12.8414 129.863 13.5395 131.066 14.9025C132.325 16.2655 132.94 18.2532 132.94 20.8121ZM128.283 20.5916C128.283 17.251 127.481 15.5606 125.901 15.5606C125.073 15.5606 124.431 16.0149 123.977 16.9537C123.496 17.9558 123.252 19.2921 123.252 21.0727C123.252 24.5502 124.031 26.2907 125.591 26.2907C126.476 26.2907 127.117 25.7829 127.572 24.7674C128.026 23.7518 128.283 22.3655 128.283 20.5916Z" fill="#023832"/>
<path d="M142.624 13.3224C143.596 12.9856 144.62 12.8305 145.648 12.8648C147.118 12.8648 147.842 13.4828 147.842 14.7388L147.709 19.1017C147.655 21.0526 147.602 22.7396 147.522 24.1126C147.281 27.5635 144.899 29.304 140.376 29.304C138.975 29.3211 137.596 28.9512 136.391 28.235C134.971 27.4031 134.276 26.0402 134.276 24.1126L134.33 20.4379C134.383 18.0561 134.41 16.2655 134.41 15.113C134.433 14.5505 134.318 13.9909 134.076 13.4828L133.969 13.3224C133.969 13.269 134.236 13.1855 134.797 13.0786C135.521 12.94 136.256 12.8684 136.992 12.8648C138.462 12.8648 139.214 13.4828 139.214 14.7388L139.107 23.7017C139.107 25.4422 139.668 26.2974 140.777 26.2974C141.529 26.2974 142.036 26.1103 142.33 25.7094C142.624 25.3086 142.812 24.6672 142.892 23.675C142.999 22.4189 143.052 19.556 143.052 15.113C143.075 14.5505 142.96 13.9909 142.718 13.4828L142.624 13.3224Z" fill="#023832"/>
<path d="M149.924 28.893C149.897 28.5589 149.87 28.1179 149.87 27.4999C149.87 26.0301 149.924 23.8887 150.057 21.1327C150.191 17.5215 150.271 15.5138 150.271 15.1664C150.306 14.5901 150.191 14.0146 149.937 13.4961L149.83 13.309C150.338 13.0117 152.078 12.8513 155.048 12.8513C156.585 12.8569 158.105 13.1764 159.515 13.79C161.185 14.5116 162.03 15.6875 162.03 17.3478C162.03 19.4891 161.175 21.0225 159.488 21.8977C160.027 23.6348 160.75 24.7317 161.656 25.1882C162.393 25.5648 163.21 25.7573 164.038 25.7494C164.272 26.0159 164.405 26.3567 164.412 26.7115C164.422 27.0378 164.366 27.3628 164.246 27.6666C164.127 27.9704 163.947 28.2467 163.717 28.4787C163.425 28.764 163.076 28.9851 162.694 29.1277C162.311 29.2704 161.903 29.3315 161.496 29.3072C160.026 29.3072 158.823 28.9063 157.884 28.0779C156.869 27.1135 156.089 25.4544 155.546 23.1003H154.798C154.744 24.009 154.717 25.2417 154.717 26.775C154.717 27.6035 154.744 28.3284 154.771 28.8896L149.924 28.893ZM154.824 20.2575C156.775 20.2575 157.741 19.3221 157.741 17.4747C157.741 16.3256 156.829 15.7343 155.038 15.7343L154.824 20.2575Z" fill="#023832"/>
<path d="M172.239 17.3612C173.033 18.8308 173.661 20.3836 174.113 21.9913H174.38V19.2887C174.38 15.888 174.046 13.9103 173.418 13.2957C174.099 12.9574 174.854 12.7998 175.613 12.838C176.335 12.838 176.842 13.0262 177.136 13.4026C177.377 13.7366 177.511 14.3379 177.511 15.1664C177.511 17.5483 177.27 21.9111 176.789 28.2249L176.736 28.893H172.59C171.905 26.7081 171.074 24.572 170.101 22.4991C169.099 20.2508 168.12 18.6707 167.131 17.7888H166.917C166.971 18.4569 166.998 19.6629 166.998 21.4C166.998 23.3543 166.998 24.7206 166.971 25.5223C166.944 26.3241 166.944 27.4465 166.944 28.893H163.677C163.65 28.3585 163.624 27.8908 163.624 27.5C163.894 19.6362 164.028 15.4738 164.028 15.0862C164.065 14.5227 163.95 13.9595 163.694 13.456L163.587 13.2957C163.991 12.9983 164.766 12.838 165.925 12.838C167.772 12.838 169.351 13.5874 170.662 15.0862C171.283 15.7741 171.813 16.5386 172.239 17.3612Z" fill="#023832"/>
<path d="M178.847 28.893C178.82 28.559 178.793 28.118 178.793 27.5C178.793 26.882 178.874 24.8275 179.007 21.3199C179.141 17.8122 179.221 15.7277 179.221 15.0863C179.254 14.5316 179.138 13.9782 178.887 13.4828L178.78 13.2957C180.534 12.9583 182.319 12.8049 184.105 12.838C186.273 12.838 187.716 12.9449 188.414 13.1721C189.112 13.3993 189.483 13.8703 189.483 14.6988C189.475 15.1946 189.285 15.6701 188.949 16.035C188.799 16.2129 188.615 16.3591 188.408 16.4652C188.201 16.5713 187.975 16.6352 187.743 16.653C187.743 16.319 187.208 16.1185 186.139 16.1185L183.891 16.2254L183.864 17.4013C183.838 18.0427 183.811 18.5505 183.784 18.9246C184.585 18.8478 185.389 18.8122 186.193 18.8177C186.61 18.8325 187.024 18.9045 187.422 19.0315C187.708 19.0784 187.967 19.2312 188.145 19.4595C188.324 19.6879 188.411 19.9751 188.388 20.2642C188.388 21.2263 188.094 21.8143 187.529 22.0047L187.235 22.1116C186.742 21.9598 186.228 21.8876 185.712 21.8978L183.784 21.978L183.677 25.1883H186.834C187.375 25.225 187.916 25.1334 188.414 24.9211L188.575 24.8409C189.457 25.4288 189.884 26.0702 189.884 26.7918C189.884 28.2116 188.976 28.9064 187.155 28.9064L178.847 28.893Z" fill="#023832"/>
<path d="M195.022 28.893C194.995 28.5589 194.969 28.118 194.969 27.4999L195.102 23.862C194.758 21.6327 194.034 19.479 192.961 17.4948C191.865 15.2733 190.846 13.8568 189.954 13.2956C191.049 12.976 192.185 12.8217 193.325 12.838C194.071 12.8218 194.808 13.0057 195.459 13.3705C196.109 13.7353 196.651 14.2678 197.026 14.9125C197.443 15.5267 197.76 16.2033 197.965 16.9169C198.378 18.2118 198.647 19.5483 198.767 20.9022H198.981C199.983 19.753 200.481 18.1462 200.481 16.1418C200.481 14.829 200.183 13.8669 199.622 13.3056C199.863 13.0083 200.481 12.848 201.416 12.848C202.108 12.8173 202.786 13.0474 203.317 13.4927C203.548 13.7033 203.73 13.962 203.85 14.2506C203.97 14.5392 204.025 14.8507 204.012 15.163C203.997 16.9452 203.506 18.6911 202.592 20.2207C201.822 21.5917 200.917 22.882 199.889 24.0725V26.8285C199.889 27.7672 199.916 28.4621 199.943 28.8897L195.022 28.893Z" fill="#023832"/>
<path d="M217 23.9322C217 27.49 214.618 29.2772 209.881 29.2772C208.386 29.2945 206.918 28.8766 205.655 28.0746C204.399 27.2428 203.754 26.3074 203.754 25.3186C203.748 25.0355 203.807 24.7548 203.928 24.4989C204.05 24.2431 204.229 24.0192 204.453 23.8453C204.948 23.483 205.549 23.2951 206.163 23.3109L206.27 23.4178C207.636 24.7841 209.026 25.4522 210.472 25.4522C210.89 25.4685 211.302 25.3515 211.648 25.1181C211.802 25.0265 211.929 24.8969 212.018 24.7419C212.107 24.5869 212.154 24.4116 212.156 24.2329C212.156 23.8587 211.782 23.4578 211.06 23.057L208.652 21.9278C206.298 20.7497 205.121 19.1707 205.121 17.1908C205.121 16.6075 205.251 16.0314 205.5 15.5041C205.75 14.9767 206.113 14.5112 206.564 14.1408C207.566 13.2589 209.053 12.828 211.087 12.828C212.181 12.8195 213.271 12.9646 214.324 13.2589C215.687 13.593 216.385 14.2611 216.385 15.2099C216.404 15.6682 216.252 16.1171 215.958 16.4693C215.746 16.7456 215.441 16.9356 215.099 17.0038L214.645 17.0839C213.897 16.3356 212.717 15.9581 211.141 15.9581C209.988 15.9581 209.4 16.3356 209.4 17.0839C209.4 17.6719 210.285 18.2866 212.073 18.928C215.366 20.0103 217.027 21.6673 217 23.9322Z" fill="#023832"/>
<path d="M36.8938 22.3688C36.9801 22.433 37.0415 22.525 37.0675 22.6294C37.071 22.6872 37.0628 22.7452 37.0433 22.7997C37.0238 22.8543 36.9934 22.9043 36.9539 22.9468C36.776 23.1525 36.584 23.3456 36.3793 23.5247L36.1522 23.6817L35.9818 23.8922C35.6945 24.1561 35.4105 24.4701 35.0097 24.8376C33.0053 26.9923 31.0644 28.9398 29.2939 30.6736L27.8641 31.8295L26.4343 33.0388L25.8631 33.5131L25.2918 33.9842C24.8553 34.248 24.3958 34.4717 23.9188 34.6523C22.7763 35.0732 21.8042 34.8628 21.0592 33.9842C20.3176 33.3161 19.9168 32.3139 19.7464 30.9776C19.4763 28.5387 19.7094 26.0704 20.4312 23.7251C21.491 20.1653 22.8487 16.7011 24.4901 13.3692L21.0025 15.4203C19.6328 16.2087 18.487 16.8902 17.5148 17.4681C16.8868 17.8891 15.9715 18.5204 14.6586 19.3623C13.5729 20.0304 12.9449 20.7286 12.7144 21.4134C12.1999 23.0403 11.6855 24.3565 11.2846 25.3553C10.8967 26.5884 10.4394 27.7985 9.91493 28.9799C9.51406 30.1892 9.05639 31.3985 8.54194 32.6546C8.09024 33.706 7.40474 34.6406 6.53757 35.3872C5.82086 35.9153 4.96735 36.2261 4.07887 36.2825C3.20495 36.3706 2.3293 36.1327 1.62017 35.6144C0.193728 34.7191 -0.263935 33.4062 0.133598 31.7259C0.405609 30.6221 0.957925 29.6073 1.7371 28.7795C2.70922 27.7305 3.56441 26.8352 4.30937 26.1538C6.45676 24.1471 8.74906 22.3015 11.1677 20.6317L12.3102 17.1107L13.3959 13.6431C14.1976 10.9706 14.8824 8.63219 15.4002 6.59776C15.4604 6.28374 15.8011 6.17685 16.4291 6.2303C17.0037 6.3372 17.2309 6.56436 17.1741 6.86168L16.6596 8.70234L16.1452 10.5397L14.8858 14.7455L13.5729 19.0048L14.9426 18.0594L16.3156 17.1641L18.5471 15.7978L20.7753 14.485C22.7797 13.3258 24.2061 12.4338 25.1749 11.8559L25.8063 10.5397L26.3775 9.28028L27.236 7.5465C27.4788 6.94758 27.7646 6.36702 28.0912 5.80938L28.4921 5.07443L28.8262 4.40631C29.0812 3.90437 29.3868 3.42978 29.7382 2.98989C30.3681 2.03045 31.185 1.20786 32.1401 0.571285C33.1122 -0.0968387 33.9707 -0.167002 34.7691 0.414266C35.5709 0.886407 35.7424 1.72715 35.2836 2.93645C34.9543 3.88074 34.4499 4.75451 33.797 5.51205C32.51 7.27591 30.9465 8.82024 29.1669 10.0854L28.5389 10.5564L27.8708 11.0308C27.4504 11.3235 27.115 11.7223 26.8986 12.1866C25.877 14.2235 24.9616 16.312 24.156 18.4436C23.167 20.8022 22.4009 23.2482 21.8677 25.7495C21.6415 26.9275 21.5296 28.1245 21.5336 29.324C21.5336 30.7939 21.7073 31.8996 21.9913 32.5811C22.1283 32.8788 22.3348 33.1392 22.5936 33.3404C22.8523 33.5415 23.1556 33.6775 23.4778 33.7369C24.3788 33.4862 25.2038 33.0169 25.8798 32.3706L27.3095 31.1613L28.6591 29.9454L30.0889 28.5256L31.4619 27.1058C32.6612 25.8431 34.2614 24.3198 36.2624 22.4791C36.2988 22.4253 36.349 22.3822 36.4078 22.3546C36.4666 22.327 36.5318 22.3157 36.5965 22.3221C36.6448 22.2981 36.6993 22.2898 36.7526 22.2982C36.8058 22.3066 36.8551 22.3312 36.8938 22.3688ZM6.65449 32.7748C6.8282 32.3038 7.05536 31.7259 7.34266 31.0411L8.02748 29.3073L9.34368 25.7328L10.5998 22.1584C8.74363 23.5298 6.96586 25.0042 5.27481 26.5747C4.33035 27.3619 3.45009 28.2232 2.6424 29.1503C1.67362 30.3563 1.15583 31.305 0.972092 32.0934C0.878868 32.5254 0.887065 32.9732 0.996035 33.4015C1.105 33.8299 1.31178 34.2271 1.60013 34.5621C1.91976 34.9268 2.34771 35.1796 2.82137 35.2836C3.29503 35.3876 3.78954 35.3373 4.23254 35.14C5.21691 34.826 6.02423 34.0376 6.65449 32.7748ZM34.552 1.97435C34.6088 1.49998 34.4952 1.18595 34.2179 1.0256C34.2179 0.975496 34.2179 0.922046 34.1612 0.922046C34.0344 1.00451 33.9002 1.07497 33.7603 1.13251C33.255 1.38936 32.8081 1.74759 32.4474 2.18481C31.6835 2.96802 31.0294 3.85133 30.5032 4.81053L29.7582 6.3372L28.9598 7.86052C28.7293 8.28144 28.3886 8.96292 27.9309 9.96176C27.9309 9.91165 27.9309 9.91167 27.9877 9.91167C29.7213 8.68099 31.2761 7.21612 32.6078 5.55883C33.2603 4.78439 33.8208 3.93689 34.2781 3.03332L34.4518 2.5623L34.552 1.97435Z" fill="#397B5C"/>
<mask id="mask1_2_18" style="mask-type:luminance" maskUnits="userSpaceOnUse" x="-2" y="-2" width="41" height="40">
<path d="M37.9964 -0.979614H-1.0036V37.0204H37.9964V-0.979614Z" fill="white" stroke="#397B5C" stroke-width="1.2"/>
<path d="M36.8938 22.3688C36.9801 22.433 37.0415 22.525 37.0675 22.6294C37.071 22.6872 37.0628 22.7452 37.0433 22.7997C37.0238 22.8543 36.9934 22.9043 36.9539 22.9468C36.776 23.1525 36.584 23.3456 36.3793 23.5247L36.1522 23.6817L35.9818 23.8922C35.6945 24.1561 35.4105 24.4701 35.0097 24.8376C33.0053 26.9923 31.0644 28.9398 29.2939 30.6736L27.8641 31.8295L26.4343 33.0388L25.8631 33.5131L25.2918 33.9842C24.8553 34.248 24.3958 34.4717 23.9188 34.6523C22.7763 35.0732 21.8042 34.8628 21.0592 33.9842C20.3176 33.3161 19.9168 32.3139 19.7464 30.9776C19.4763 28.5387 19.7094 26.0704 20.4312 23.7251C21.491 20.1653 22.8487 16.7011 24.4901 13.3692L21.0025 15.4203C19.6328 16.2087 18.487 16.8902 17.5148 17.4681C16.8868 17.8891 15.9715 18.5204 14.6586 19.3623C13.5729 20.0304 12.9449 20.7286 12.7144 21.4134C12.1999 23.0403 11.6855 24.3565 11.2846 25.3553C10.8967 26.5884 10.4394 27.7985 9.91493 28.9799C9.51406 30.1892 9.05639 31.3985 8.54194 32.6546C8.09024 33.706 7.40474 34.6406 6.53757 35.3872C5.82086 35.9153 4.96735 36.2261 4.07887 36.2825C3.20495 36.3706 2.3293 36.1327 1.62017 35.6144C0.193728 34.7191 -0.263935 33.4062 0.133598 31.7259C0.405609 30.6221 0.957925 29.6073 1.7371 28.7795C2.70922 27.7305 3.56441 26.8352 4.30937 26.1538C6.45676 24.1471 8.74906 22.3015 11.1677 20.6317L12.3102 17.1107L13.3959 13.6431C14.1976 10.9706 14.8824 8.63219 15.4002 6.59776C15.4604 6.28374 15.8011 6.17685 16.4291 6.2303C17.0037 6.3372 17.2309 6.56436 17.1741 6.86168L16.6596 8.70234L16.1452 10.5397L14.8858 14.7455L13.5729 19.0048L14.9426 18.0594L16.3156 17.1641L18.5471 15.7978L20.7753 14.485C22.7797 13.3258 24.2061 12.4338 25.1749 11.8559L25.8063 10.5397L26.3775 9.28028L27.236 7.5465C27.4788 6.94758 27.7646 6.36702 28.0912 5.80938L28.4921 5.07443L28.8262 4.40631C29.0812 3.90437 29.3868 3.42978 29.7382 2.98989C30.3681 2.03045 31.185 1.20786 32.1401 0.571285C33.1122 -0.0968387 33.9707 -0.167002 34.7691 0.414266C35.5709 0.886407 35.7424 1.72715 35.2836 2.93645C34.9543 3.88074 34.4499 4.75451 33.797 5.51205C32.51 7.27591 30.9465 8.82024 29.1669 10.0854L28.5389 10.5564L27.8708 11.0308C27.4504 11.3235 27.115 11.7223 26.8986 12.1866C25.877 14.2235 24.9616 16.312 24.156 18.4436C23.167 20.8022 22.4009 23.2482 21.8677 25.7495C21.6415 26.9275 21.5296 28.1245 21.5336 29.324C21.5336 30.7939 21.7073 31.8996 21.9913 32.5811C22.1283 32.8788 22.3348 33.1392 22.5936 33.3404C22.8523 33.5415 23.1556 33.6775 23.4778 33.7369C24.3788 33.4862 25.2038 33.0169 25.8798 32.3706L27.3095 31.1613L28.6591 29.9454L30.0889 28.5256L31.4619 27.1058C32.6612 25.8431 34.2614 24.3198 36.2624 22.4791C36.2988 22.4253 36.349 22.3822 36.4078 22.3546C36.4666 22.327 36.5318 22.3157 36.5965 22.3221C36.6448 22.2981 36.6993 22.2898 36.7526 22.2982C36.8058 22.3066 36.8551 22.3312 36.8938 22.3688ZM6.65449 32.7748C6.8282 32.3038 7.05536 31.7259 7.34266 31.0411L8.02748 29.3073L9.34368 25.7328L10.5998 22.1584C8.74363 23.5298 6.96586 25.0042 5.27481 26.5747C4.33035 27.3619 3.45009 28.2232 2.6424 29.1503C1.67362 30.3563 1.15583 31.305 0.972092 32.0934C0.878868 32.5254 0.887065 32.9732 0.996035 33.4015C1.105 33.8299 1.31178 34.2271 1.60013 34.5621C1.91976 34.9268 2.34771 35.1796 2.82137 35.2836C3.29503 35.3876 3.78954 35.3373 4.23254 35.14C5.21691 34.826 6.02423 34.0376 6.65449 32.7748ZM34.552 1.97435C34.6088 1.49998 34.4952 1.18595 34.2179 1.0256C34.2179 0.975496 34.2179 0.922046 34.1612 0.922046C34.0344 1.00451 33.9002 1.07497 33.7603 1.13251C33.255 1.38936 32.8081 1.74759 32.4474 2.18481C31.6835 2.96802 31.0294 3.85133 30.5032 4.81053L29.7582 6.3372L28.9598 7.86052C28.7293 8.28144 28.3886 8.96292 27.9309 9.96176C27.9309 9.91165 27.9309 9.91167 27.9877 9.91167C29.7213 8.68099 31.2761 7.21612 32.6078 5.55883C33.2603 4.78439 33.8208 3.93689 34.2781 3.03332L34.4518 2.5623L34.552 1.97435Z" stroke="#397B5C" stroke-width="1.2"/>
</mask>
<g mask="url(#mask1_2_18)">
<path d="M36.8938 22.3688C36.9801 22.433 37.0415 22.525 37.0675 22.6294C37.071 22.6872 37.0628 22.7452 37.0433 22.7997C37.0238 22.8543 36.9934 22.9043 36.9539 22.9468C36.776 23.1525 36.584 23.3456 36.3793 23.5247L36.1522 23.6817L35.9818 23.8922C35.6945 24.1561 35.4105 24.4701 35.0097 24.8376C33.0053 26.9923 31.0644 28.9398 29.2939 30.6736L27.8641 31.8295L26.4343 33.0388L25.8631 33.5131L25.2918 33.9842C24.8553 34.248 24.3958 34.4717 23.9188 34.6523C22.7763 35.0732 21.8042 34.8628 21.0592 33.9842C20.3176 33.3161 19.9168 32.3139 19.7464 30.9776C19.4763 28.5387 19.7094 26.0704 20.4312 23.7251C21.491 20.1653 22.8487 16.7011 24.4901 13.3692L21.0025 15.4203C19.6328 16.2087 18.487 16.8902 17.5148 17.4681C16.8868 17.8891 15.9715 18.5204 14.6586 19.3623C13.5729 20.0304 12.9449 20.7286 12.7144 21.4134C12.1999 23.0403 11.6855 24.3565 11.2846 25.3553C10.8967 26.5884 10.4394 27.7985 9.91493 28.9799C9.51406 30.1892 9.05639 31.3985 8.54194 32.6546C8.09024 33.706 7.40474 34.6406 6.53757 35.3872C5.82086 35.9153 4.96735 36.2261 4.07887 36.2825C3.20495 36.3706 2.3293 36.1327 1.62017 35.6144C0.193728 34.7191 -0.263935 33.4062 0.133598 31.7259C0.405609 30.6221 0.957925 29.6073 1.7371 28.7795C2.70922 27.7305 3.56441 26.8352 4.30937 26.1538C6.45676 24.1471 8.74906 22.3015 11.1677 20.6317L12.3102 17.1107L13.3959 13.6431C14.1976 10.9706 14.8824 8.63219 15.4002 6.59776C15.4604 6.28374 15.8011 6.17685 16.4291 6.2303C17.0037 6.3372 17.2309 6.56436 17.1741 6.86168L16.6596 8.70234L16.1452 10.5397L14.8858 14.7455L13.5729 19.0048L14.9426 18.0594L16.3156 17.1641L18.5471 15.7978L20.7753 14.485C22.7797 13.3258 24.2061 12.4338 25.1749 11.8559L25.8063 10.5397L26.3775 9.28028L27.236 7.5465C27.4788 6.94758 27.7646 6.36702 28.0912 5.80938L28.4921 5.07443L28.8262 4.40631C29.0812 3.90437 29.3868 3.42978 29.7382 2.98989C30.3681 2.03045 31.185 1.20786 32.1401 0.571285C33.1122 -0.0968387 33.9707 -0.167002 34.7691 0.414266C35.5709 0.886407 35.7424 1.72715 35.2836 2.93645C34.9543 3.88074 34.4499 4.75451 33.797 5.51205C32.51 7.27591 30.9465 8.82024 29.1669 10.0854L28.5389 10.5564L27.8708 11.0308C27.4504 11.3235 27.115 11.7223 26.8986 12.1866C25.877 14.2235 24.9616 16.312 24.156 18.4436C23.167 20.8022 22.4009 23.2482 21.8677 25.7495C21.6415 26.9275 21.5296 28.1245 21.5336 29.324C21.5336 30.7939 21.7073 31.8996 21.9913 32.5811C22.1283 32.8788 22.3348 33.1392 22.5936 33.3404C22.8523 33.5415 23.1556 33.6775 23.4778 33.7369C24.3788 33.4862 25.2038 33.0169 25.8798 32.3706L27.3095 31.1613L28.6591 29.9454L30.0889 28.5256L31.4619 27.1058C32.6612 25.8431 34.2614 24.3198 36.2624 22.4791C36.2988 22.4253 36.349 22.3822 36.4078 22.3546C36.4666 22.327 36.5318 22.3157 36.5965 22.3221C36.6448 22.2981 36.6993 22.2898 36.7526 22.2982C36.8058 22.3066 36.8551 22.3312 36.8938 22.3688ZM6.65449 32.7748C6.8282 32.3038 7.05536 31.7259 7.34266 31.0411L8.02748 29.3073L9.34368 25.7328L10.5998 22.1584C8.74363 23.5298 6.96586 25.0042 5.27481 26.5747C4.33035 27.3619 3.45009 28.2232 2.6424 29.1503C1.67362 30.3563 1.15583 31.305 0.972092 32.0934C0.878868 32.5254 0.887065 32.9732 0.996035 33.4015C1.105 33.8299 1.31178 34.2271 1.60013 34.5621C1.91976 34.9268 2.34771 35.1796 2.82137 35.2836C3.29503 35.3876 3.78954 35.3373 4.23254 35.14C5.21691 34.826 6.02423 34.0376 6.65449 32.7748ZM34.552 1.97435C34.6088 1.49998 34.4952 1.18595 34.2179 1.0256C34.2179 0.975496 34.2179 0.922046 34.1612 0.922046C34.0344 1.00451 33.9002 1.07497 33.7603 1.13251C33.255 1.38936 32.8081 1.74759 32.4474 2.18481C31.6835 2.96802 31.0294 3.85133 30.5032 4.81053L29.7582 6.3372L28.9598 7.86052C28.7293 8.28144 28.3886 8.96292 27.9309 9.96176C27.9309 9.91165 27.9309 9.91167 27.9877 9.91167C29.7213 8.68099 31.2761 7.21612 32.6078 5.55883C33.2603 4.78439 33.8208 3.93689 34.2781 3.03332L34.4518 2.5623L34.552 1.97435Z" stroke="#397B5C" stroke-width="1.2"/>
</g>
<path d="M35.4513 24.792C35.4515 24.8897 35.468 25.0564 35.4883 25.2588C35.4904 25.2799 35.4926 25.3017 35.4949 25.324C35.5153 25.5261 35.5406 25.7772 35.566 26.0756L35.5687 26.1077L35.5782 26.1385C35.7577 26.7209 36.006 27.1887 36.3419 27.5351C36.6815 27.8854 37.0968 28.0969 37.5813 28.1859L37.6081 28.1908H37.6354H37.82L37.9465 28.2305L37.9903 28.2443H38.0363C39.0423 28.2443 40.1335 27.7833 41.301 26.923L41.3044 26.9205C41.7787 26.5605 42.2268 26.1673 42.6454 25.7439C42.999 25.4319 43.328 25.0931 43.6295 24.7305L43.785 24.5871L44.0128 24.3761L44.0248 24.3649L44.0356 24.3525L44.4893 23.8292C44.8172 23.4797 45.1001 23.0903 45.3311 22.6704L45.3683 22.6029V22.5258V22.3688V22.2629L45.3018 22.1804L45.2183 22.0769L45.2035 22.0585L45.186 22.0427C45.178 22.0355 45.1702 22.0284 45.1625 22.0215C45.0915 21.9572 45.0298 21.9014 44.9799 21.8631C44.9267 21.8223 44.8304 21.7548 44.6975 21.7548C44.6967 21.7548 44.6958 21.7548 44.6948 21.7548C44.684 21.7547 44.6595 21.7547 44.6357 21.7569C44.6021 21.7601 44.5593 21.7682 44.513 21.79C44.4712 21.8096 44.4409 21.8339 44.4237 21.8484C44.4159 21.8551 44.4077 21.8624 44.4001 21.8694L44.2541 21.961L44.2241 21.9798L44.1994 22.005L43.176 23.0483C43.1454 23.0764 43.1146 23.1046 43.0837 23.1329C42.722 23.4639 42.3457 23.8084 42.0315 24.1519L41.4767 24.6094L41.4635 24.6202L41.4517 24.6325L40.9976 25.1031C40.6763 25.4133 40.315 25.6793 39.9232 25.8939L39.9013 25.906L39.8817 25.9214C39.5862 26.1544 39.229 26.2957 38.8543 26.3282C38.7052 26.3286 38.558 26.2935 38.4251 26.2257C38.2894 26.1565 38.1725 26.0554 38.0846 25.931C37.9667 25.7629 37.8638 25.5849 37.777 25.3988L37.7708 25.3864C37.6557 25.1667 37.5899 24.9246 37.578 24.6769C37.578 24.6591 37.578 24.644 37.5781 24.6307C38.7438 24.0089 39.8094 23.2149 40.7388 22.2754C41.0052 22.0498 41.2223 21.7717 41.3767 21.4585C41.5332 21.1409 41.6217 20.7942 41.6366 20.4405L41.6377 20.4142L41.6342 20.3882C41.6064 20.1799 41.5647 19.9737 41.5093 19.7709L41.4971 19.7264L41.4721 19.6875C41.3346 19.474 41.1508 19.2941 40.9343 19.1613C40.7178 19.0285 40.4743 18.9461 40.2216 18.9201L40.2074 18.9187L40.1931 18.9186C39.6879 18.9151 39.1894 19.0343 38.7405 19.266L38.7262 19.2734L38.7127 19.2823C37.5749 20.0344 36.6276 21.0409 35.9458 22.2222L35.935 22.2409L35.927 22.2609C35.6059 23.0658 35.4443 23.9254 35.4513 24.792ZM35.4513 24.792C35.4513 24.7915 35.4513 24.7911 35.4513 24.7907H35.7513M35.4513 24.792C35.4513 24.7924 35.4513 24.7928 35.4513 24.7932L35.7513 24.7907M35.7513 24.7907C35.7513 24.877 35.7685 25.0472 35.7934 25.2939C35.8138 25.4959 35.8393 25.7493 35.8649 26.0501L36.2056 22.3721C35.8988 23.1412 35.7445 23.9627 35.7513 24.7907ZM39.837 20.8277C39.4923 21.4005 39.034 21.8957 38.4915 22.2832C38.5277 22.2088 38.5717 22.1383 38.623 22.073L38.6244 22.0712L38.9084 21.7037L38.9146 21.6957L38.9202 21.6873C39.1569 21.3341 39.4707 21.0404 39.837 20.8277Z" fill="#397B5C"/>
<path d="M35.4513 24.792C35.4515 24.8897 35.468 25.0564 35.4883 25.2588C35.4904 25.2799 35.4926 25.3017 35.4949 25.324C35.5153 25.5261 35.5406 25.7772 35.566 26.0756L35.5687 26.1077L35.5782 26.1385C35.7577 26.7209 36.006 27.1887 36.3419 27.5351C36.6815 27.8854 37.0968 28.0969 37.5813 28.1859L37.6081 28.1908H37.6354H37.82L37.9465 28.2305L37.9903 28.2443H38.0363C39.0423 28.2443 40.1335 27.7833 41.301 26.923L41.3044 26.9205C41.7787 26.5605 42.2268 26.1673 42.6454 25.7439C42.999 25.4319 43.328 25.0931 43.6295 24.7305L43.785 24.5871L44.0128 24.3761L44.0248 24.3649L44.0356 24.3525L44.4893 23.8292C44.8172 23.4797 45.1001 23.0903 45.3311 22.6704L45.3683 22.6029V22.5258V22.3688V22.2629L45.3018 22.1804L45.2183 22.0769L45.2035 22.0585L45.186 22.0427C45.178 22.0355 45.1702 22.0284 45.1625 22.0215C45.0915 21.9572 45.0298 21.9014 44.9799 21.8631C44.9267 21.8223 44.8304 21.7548 44.6975 21.7548C44.6967 21.7548 44.6958 21.7548 44.6948 21.7548C44.684 21.7547 44.6595 21.7547 44.6357 21.7569C44.6021 21.7601 44.5593 21.7682 44.513 21.79C44.4712 21.8096 44.4409 21.8339 44.4237 21.8484C44.4159 21.8551 44.4077 21.8624 44.4001 21.8694L44.2541 21.961L44.2241 21.9798L44.1994 22.005L43.176 23.0483C43.1454 23.0764 43.1146 23.1046 43.0837 23.1329C42.722 23.4639 42.3457 23.8084 42.0315 24.1519L41.4767 24.6094L41.4635 24.6202L41.4517 24.6325L40.9976 25.1031C40.6763 25.4133 40.315 25.6793 39.9232 25.8939L39.9013 25.906L39.8817 25.9214C39.5862 26.1544 39.229 26.2957 38.8543 26.3282C38.7052 26.3286 38.558 26.2935 38.4251 26.2257C38.2894 26.1565 38.1725 26.0554 38.0846 25.931C37.9667 25.7629 37.8638 25.5849 37.777 25.3988L37.7708 25.3864C37.6557 25.1667 37.5899 24.9246 37.578 24.6769C37.578 24.6591 37.578 24.644 37.5781 24.6307C38.7438 24.0089 39.8094 23.2149 40.7388 22.2754C41.0052 22.0498 41.2223 21.7717 41.3767 21.4585C41.5332 21.1409 41.6217 20.7942 41.6366 20.4405L41.6377 20.4142L41.6342 20.3882C41.6064 20.1799 41.5647 19.9737 41.5093 19.7709L41.4971 19.7264L41.4721 19.6875C41.3346 19.474 41.1508 19.2941 40.9343 19.1613C40.7178 19.0285 40.4743 18.9461 40.2216 18.9201L40.2074 18.9187L40.1931 18.9186C39.6879 18.9151 39.1894 19.0343 38.7405 19.266L38.7262 19.2734L38.7127 19.2823C37.5749 20.0344 36.6276 21.0409 35.9458 22.2222L35.935 22.2409L35.927 22.2609C35.6059 23.0658 35.4443 23.9254 35.4513 24.792ZM35.4513 24.792C35.4513 24.7915 35.4513 24.7911 35.4513 24.7907H35.7513M35.4513 24.792C35.4513 24.7924 35.4513 24.7928 35.4513 24.7932L35.7513 24.7907M35.7513 24.7907C35.7513 24.877 35.7685 25.0472 35.7934 25.2939C35.8138 25.4959 35.8393 25.7493 35.8649 26.0501L36.2056 22.3721C35.8988 23.1412 35.7445 23.9627 35.7513 24.7907ZM39.837 20.8277C39.4923 21.4005 39.034 21.8957 38.4915 22.2832C38.5277 22.2088 38.5717 22.1383 38.623 22.073L38.6244 22.0712L38.9084 21.7037L38.9146 21.6957L38.9202 21.6873C39.1569 21.3341 39.4707 21.0404 39.837 20.8277Z" stroke="#397B5C" stroke-width="0.6"/>
<path d="M45.7099 23.8106C45.686 23.826 45.6619 23.8411 45.6377 23.856H45.4804C45.5851 23.6188 45.7441 23.3385 45.9622 23.0136L45.9699 23.0021L45.9765 22.99C46.1669 22.6405 46.4036 22.3195 46.6795 22.0354C46.7048 22.1481 46.7586 22.2522 46.8354 22.3378C46.8756 22.413 46.9332 22.4779 47.0039 22.5267C47.0961 22.5905 47.206 22.6238 47.3182 22.6219L47.3132 22.322M45.7099 23.8106L46.7601 21.9545C46.8276 21.8885 46.8973 21.8246 46.9691 21.763V21.9545C46.9839 22.0356 47.025 22.1096 47.0861 22.165C47.1028 22.2116 47.1337 22.2518 47.1744 22.2799C47.2152 22.3081 47.2637 22.3228 47.3132 22.322M45.7099 23.8106C45.9561 23.6197 46.2177 23.4508 46.4852 23.2781C46.5892 23.211 46.6941 23.1432 46.7994 23.0734M45.7099 23.8106L46.7994 23.0734ZM47.3132 22.322C47.4 22.3212 47.4857 22.302 47.5646 22.2658C47.6435 22.2295 47.7138 22.1769 47.7709 22.1115M47.3132 22.322L47.3159 22.622C47.3539 22.6216 47.3917 22.6189 47.4292 22.6139M47.7709 22.1115L47.904 22.2498C47.8191 22.3163 47.7339 22.3823 47.6483 22.4478C47.5755 22.5035 47.5025 22.5589 47.4292 22.6139M47.7709 22.1115C47.9063 21.9811 48.0054 21.8176 48.0582 21.6371C48.0719 21.352 47.9805 21.0717 47.8014 20.8494C47.6222 20.6271 47.3677 20.4783 47.0861 20.4312C46.3979 20.4312 45.6563 20.8487 44.7977 21.6906C43.8824 22.6438 43.4247 23.646 43.4247 24.6971C43.4295 24.8259 43.4617 24.9522 43.5194 25.0674C43.577 25.1827 43.6586 25.2842 43.7588 25.3653C43.956 25.5184 44.1945 25.6092 44.4436 25.6258C45.075 25.6258 45.8734 25.2584 46.9591 24.5234M47.7709 22.1115L47.9173 22.2393C48.0253 22.1546 48.1327 22.069 48.2395 21.9828M47.4292 22.6139C47.5192 22.6018 47.6071 22.5764 47.6899 22.5383C47.8032 22.4862 47.9046 22.4115 47.9879 22.3189C48.0888 22.22 48.1736 22.1065 48.2395 21.9828M47.4292 22.6139L57.8729 24.9444ZM47.4292 22.6139C47.2214 22.7699 47.0114 22.9231 46.7994 23.0734ZM47.4292 22.6139L46.7994 23.0734ZM57.8729 24.9444L57.5856 25.2049ZM57.8729 24.9444L58.2738 24.5769ZM57.8729 24.9444L58.2738 24.5769ZM57.5856 25.2049L57.0144 25.7327ZM57.5856 25.2049L57.7872 25.4271L57.2276 25.9442M57.5856 25.2049L57.7892 25.4253L58.0745 25.1666L58.0757 25.1655L58.4743 24.8M57.0144 25.7327L56.6803 26.1002L56.2828 26.4142M57.0144 25.7327L57.218 25.9531L57.2276 25.9442M57.0144 25.7327L57.2364 25.9345L57.2276 25.9442M56.2828 26.4142C55.7382 26.9368 55.165 27.4287 54.5657 27.8874C53.0223 29.0433 51.7084 29.6212 50.6238 29.6212C49.3076 29.6212 48.6795 28.7794 48.6795 27.099C48.7105 25.6693 48.9774 24.256 49.4681 22.9158C49.4148 22.9579 49.3698 22.9922 49.3357 23.0182L49.3339 23.0195C49.3158 23.0333 49.302 23.0438 49.291 23.0524C49.2826 23.059 49.2782 23.0625 49.2765 23.0639L49.0182 23.3011M56.2828 26.4142L56.4687 26.6496L56.48 26.6407M56.2828 26.4142L56.4905 26.6307C56.487 26.634 56.4835 26.6374 56.48 26.6407M49.0182 23.3011C49.0594 23.1734 49.1026 23.0463 49.1477 22.9198L49.0771 22.8398M49.0182 23.3011L48.4214 23.8491L48.4135 23.8564L48.405 23.8632C47.9941 24.1892 47.5664 24.4933 47.1236 24.7744M49.0182 23.3011C48.6232 24.5253 48.4075 25.8024 48.3796 27.0926L48.3795 27.099C48.3795 27.9676 48.5402 28.6761 48.9198 29.1725C49.3114 29.6847 49.8966 29.9212 50.6238 29.9212C51.8069 29.9212 53.186 29.2956 54.7455 28.1276L54.7481 28.1257C55.3524 27.663 55.9306 27.1673 56.48 26.6407M49.0771 22.8398L49.1485 22.9175C49.1706 22.8555 49.1932 22.7935 49.2163 22.7318C49.1929 22.7498 49.1719 22.7658 49.1536 22.7797C49.1174 22.8073 49.0915 22.8271 49.0771 22.8398ZM49.0771 22.8398L48.2185 23.6282C47.8148 23.9485 47.3944 24.2474 46.9591 24.5234M46.9591 24.5234L47.1198 24.7768C47.1211 24.776 47.1223 24.7752 47.1236 24.7744M46.9591 24.5234L47.1273 24.7719C47.1261 24.7727 47.1248 24.7735 47.1236 24.7744M48.2395 21.9828C48.6743 21.6315 49.0988 21.2675 49.5126 20.8914ZM48.2395 21.9828C48.2837 21.8998 48.3195 21.8123 48.3461 21.7214L48.3561 21.6872L48.3578 21.6516C48.3751 21.293 48.2602 20.9406 48.0349 20.6611C47.8096 20.3816 47.4896 20.1945 47.1356 20.1353L47.111 20.1312H47.0861C46.2759 20.1312 45.4609 20.6202 44.5877 21.4764L44.5814 21.4828C43.6268 22.4768 43.1247 23.5499 43.1247 24.6971L43.1249 24.7081C43.1312 24.8797 43.1742 25.048 43.251 25.2016C43.3278 25.3552 43.4366 25.4905 43.5701 25.5985L43.5748 25.6022C43.8192 25.792 44.1148 25.9045 44.4236 25.9252L44.4336 25.9258H44.4436C45.1744 25.9258 46.0395 25.5078 47.1236 24.7744M49.5126 20.8914L53.1499 18.4789ZM49.5126 20.8914C49.5177 20.8867 49.5228 20.8819 49.528 20.8771C49.6954 20.7229 49.9093 20.5259 50.1566 20.248L50.555 19.7765L50.5672 19.7621L50.5811 19.7494L51.0307 19.3358C51.3417 19.0052 51.604 18.7367 51.8127 18.5493C51.9174 18.4553 52.0163 18.3747 52.1064 18.316C52.1837 18.2657 52.3046 18.1969 52.4411 18.1969H52.4514L52.4618 18.1977C52.7154 18.2152 52.9566 18.3138 53.1499 18.4789M49.5126 20.8914L53.1499 18.4789ZM56.48 26.6407L56.8663 26.3356L56.8857 26.3203L56.9023 26.302L57.2276 25.9442M58.4743 24.8C58.7408 24.5652 58.9929 24.3146 59.2293 24.0495ZM58.4743 24.8L58.4765 24.798L58.2738 24.5769M58.4743 24.8C58.4736 24.8007 58.4728 24.8013 58.4721 24.802L58.2738 24.5769M59.2293 24.0495C59.54 23.765 59.7717 23.5393 59.9288 23.371C60.0078 23.2863 60.0726 23.2111 60.12 23.147C60.1436 23.1151 60.1669 23.0806 60.186 23.0451C60.2014 23.0164 60.2308 22.9572 60.2365 22.8828L60.2371 22.8755L60.2373 22.8682C60.2411 22.7318 60.2045 22.5973 60.132 22.4817C60.0702 22.3833 59.9848 22.3023 59.884 22.2459C59.7716 22.1425 59.6327 22.0715 59.4822 22.0412L59.4529 22.0353H59.423C59.3348 22.0353 59.2611 22.0701 59.2283 22.0864C59.1845 22.1081 59.1389 22.1363 59.0939 22.167C59.0031 22.2287 58.8906 22.3167 58.7586 22.4279C58.4941 22.6508 58.1317 22.9837 57.6731 23.4306L57.1055 23.955L56.5342 24.4795L55.6191 25.3212C55.6191 25.3211 55.619 25.3212 55.6191 25.3212C55.2738 25.6376 54.9235 25.9135 54.6137 26.1575C54.5728 26.1896 54.5327 26.2212 54.4933 26.2523L54.4901 26.2549C54.3177 26.395 54.1629 26.5254 54.0194 26.6461C53.7138 26.9034 53.4597 27.1172 53.1981 27.2894L53.1942 27.2921C52.6602 27.6558 52.2186 27.9218 51.8531 28.096C51.4834 28.2722 51.2163 28.3424 51.0247 28.3424C50.9862 28.3424 50.9421 28.3292 50.8922 28.264C50.8376 28.1925 50.7792 28.0588 50.7534 27.8373V26.342C50.9374 23.9114 51.8456 21.5917 53.3609 19.6823L53.3812 19.6567L53.3956 19.6273C53.4531 19.5091 53.4991 19.3857 53.5328 19.2587L53.5518 19.1869L53.5352 19.1146C53.4783 18.8668 53.3432 18.644 53.1499 18.4789M59.2293 24.0495C59.2255 24.053 59.2217 24.0565 59.2179 24.0599L59.0154 23.8386L59.2396 24.0379C59.2362 24.0418 59.2327 24.0457 59.2293 24.0495ZM46.7111 21.5901C46.3091 21.9477 45.9713 22.3726 45.7131 22.8464C45.4532 23.2337 45.2673 23.5702 45.1554 23.856L46.7111 21.5901Z" fill="#397B5C"/>
<path d="M45.7099 23.8106C45.686 23.826 45.6619 23.8411 45.6377 23.856H45.4804C45.5851 23.6188 45.7441 23.3385 45.9622 23.0136L45.9699 23.0021L45.9765 22.99C46.1669 22.6405 46.4036 22.3195 46.6795 22.0354C46.7048 22.1481 46.7586 22.2522 46.8354 22.3378C46.8756 22.413 46.9332 22.4779 47.0039 22.5267C47.0961 22.5905 47.206 22.6238 47.3182 22.6219L47.3132 22.322M45.7099 23.8106L46.7601 21.9545C46.8276 21.8885 46.8973 21.8246 46.9691 21.763V21.9545C46.9839 22.0356 47.025 22.1096 47.0861 22.165C47.1028 22.2116 47.1337 22.2518 47.1744 22.2799C47.2152 22.3081 47.2637 22.3228 47.3132 22.322M45.7099 23.8106C45.9561 23.6197 46.2177 23.4508 46.4852 23.2781C46.5892 23.211 46.6941 23.1432 46.7994 23.0734M45.7099 23.8106L46.7994 23.0734M47.3132 22.322C47.4 22.3212 47.4857 22.302 47.5646 22.2658C47.6435 22.2295 47.7138 22.1769 47.7709 22.1115M47.3132 22.322L47.3159 22.622C47.3539 22.6216 47.3917 22.6189 47.4292 22.6139M46.7994 23.0734C47.0114 22.9231 47.2214 22.7699 47.4292 22.6139M46.7994 23.0734L47.4292 22.6139M47.7709 22.1115L47.904 22.2498C47.8191 22.3163 47.7339 22.3823 47.6483 22.4478C47.5755 22.5035 47.5025 22.5589 47.4292 22.6139M47.7709 22.1115C47.9063 21.9811 48.0054 21.8176 48.0582 21.6371C48.0719 21.352 47.9805 21.0717 47.8014 20.8494C47.6222 20.6271 47.3677 20.4783 47.0861 20.4312C46.3979 20.4312 45.6563 20.8487 44.7977 21.6906C43.8824 22.6438 43.4247 23.646 43.4247 24.6971C43.4295 24.8259 43.4617 24.9522 43.5194 25.0674C43.577 25.1827 43.6586 25.2842 43.7588 25.3653C43.956 25.5184 44.1945 25.6092 44.4436 25.6258C45.075 25.6258 45.8734 25.2584 46.9591 24.5234M47.7709 22.1115L47.9173 22.2393C48.0253 22.1546 48.1327 22.069 48.2395 21.9828M47.4292 22.6139C47.5192 22.6018 47.6071 22.5764 47.6899 22.5383C47.8032 22.4862 47.9046 22.4115 47.9879 22.3189C48.0888 22.22 48.1736 22.1065 48.2395 21.9828M47.4292 22.6139L57.8729 24.9444M46.9591 24.5234C47.3944 24.2474 47.8148 23.9485 48.2185 23.6282L49.0771 22.8398M46.9591 24.5234L47.1198 24.7768C47.1211 24.776 47.1223 24.7752 47.1236 24.7744M46.9591 24.5234L47.1273 24.7719C47.1261 24.7727 47.1248 24.7735 47.1236 24.7744M48.2395 21.9828C48.6743 21.6315 49.0988 21.2675 49.5126 20.8914M48.2395 21.9828C48.2837 21.8998 48.3195 21.8123 48.3461 21.7214L48.3561 21.6872L48.3578 21.6516C48.3751 21.293 48.2602 20.9406 48.0349 20.6611C47.8096 20.3816 47.4896 20.1945 47.1356 20.1353L47.111 20.1312H47.0861C46.2759 20.1312 45.4609 20.6202 44.5877 21.4764L44.5814 21.4828C43.6268 22.4768 43.1247 23.5499 43.1247 24.6971L43.1249 24.7081C43.1312 24.8797 43.1742 25.048 43.251 25.2016C43.3278 25.3552 43.4366 25.4905 43.5701 25.5985L43.5748 25.6022C43.8192 25.792 44.1148 25.9045 44.4236 25.9252L44.4336 25.9258H44.4436C45.1744 25.9258 46.0395 25.5078 47.1236 24.7744M57.8729 24.9444L57.5856 25.2049M57.8729 24.9444L58.2738 24.5769M57.5856 25.2049L57.0144 25.7327M57.5856 25.2049L57.7872 25.4271L57.2276 25.9442M57.5856 25.2049L57.7892 25.4253L58.0745 25.1666L58.0757 25.1655L58.4743 24.8M58.2738 24.5769L58.4765 24.798L58.4743 24.8M58.2738 24.5769L58.4721 24.802C58.4728 24.8013 58.4736 24.8007 58.4743 24.8M57.0144 25.7327L56.6803 26.1002L56.2828 26.4142M57.0144 25.7327L57.218 25.9531L57.2276 25.9442M57.0144 25.7327L57.2364 25.9345L57.2276 25.9442M57.2276 25.9442L56.9023 26.302L56.8857 26.3203L56.8663 26.3356L56.48 26.6407M58.4743 24.8C58.7408 24.5652 58.9929 24.3146 59.2293 24.0495M56.2828 26.4142C55.7382 26.9368 55.165 27.4287 54.5657 27.8874C53.0223 29.0433 51.7084 29.6212 50.6238 29.6212C49.3076 29.6212 48.6795 28.7794 48.6795 27.099C48.7105 25.6693 48.9774 24.256 49.4681 22.9158C49.4148 22.9579 49.3698 22.9922 49.3357 23.0182L49.3339 23.0195C49.3158 23.0333 49.302 23.0438 49.291 23.0524C49.2826 23.059 49.2782 23.0625 49.2765 23.0639L49.0182 23.3011M56.2828 26.4142L56.4687 26.6496L56.48 26.6407M56.2828 26.4142L56.4905 26.6307C56.487 26.634 56.4835 26.6374 56.48 26.6407M49.0182 23.3011C49.0594 23.1734 49.1026 23.0463 49.1477 22.9198L49.0771 22.8398M49.0182 23.3011L48.4214 23.8491L48.4135 23.8564L48.405 23.8632C47.9941 24.1892 47.5664 24.4933 47.1236 24.7744M49.0182 23.3011C48.6232 24.5253 48.4075 25.8024 48.3796 27.0926L48.3795 27.099C48.3795 27.9676 48.5402 28.6761 48.9198 29.1725C49.3114 29.6847 49.8966 29.9212 50.6238 29.9212C51.8069 29.9212 53.186 29.2956 54.7455 28.1276L54.7481 28.1257C55.3524 27.663 55.9306 27.1673 56.48 26.6407M49.0771 22.8398L49.1485 22.9175C49.1706 22.8555 49.1932 22.7935 49.2163 22.7318C49.1929 22.7498 49.1719 22.7658 49.1536 22.7797C49.1174 22.8073 49.0915 22.8271 49.0771 22.8398ZM49.5126 20.8914L53.1499 18.4789M49.5126 20.8914C49.5177 20.8867 49.5228 20.8819 49.528 20.8771C49.6954 20.7229 49.9093 20.5259 50.1566 20.248L50.555 19.7765L50.5672 19.7621L50.5811 19.7494L51.0307 19.3358C51.3417 19.0052 51.604 18.7367 51.8127 18.5493C51.9174 18.4553 52.0163 18.3747 52.1064 18.316C52.1837 18.2657 52.3046 18.1969 52.4411 18.1969H52.4514L52.4618 18.1977C52.7154 18.2152 52.9566 18.3138 53.1499 18.4789M53.1499 18.4789C53.3432 18.644 53.4783 18.8668 53.5352 19.1146L53.5518 19.1869L53.5328 19.2587C53.4991 19.3857 53.4531 19.5091 53.3956 19.6273L53.3812 19.6567L53.3609 19.6823C51.8456 21.5917 50.9374 23.9114 50.7534 26.342V27.8373C50.7792 28.0588 50.8376 28.1925 50.8922 28.264C50.9421 28.3292 50.9862 28.3424 51.0247 28.3424C51.2163 28.3424 51.4834 28.2722 51.8531 28.096C52.2186 27.9218 52.6602 27.6558 53.1942 27.2921L53.1981 27.2894C53.4597 27.1172 53.7138 26.9034 54.0194 26.6461C54.1629 26.5254 54.3177 26.395 54.4901 26.2549L54.4933 26.2523C54.5327 26.2212 54.5728 26.1896 54.6137 26.1575C54.9235 25.9135 55.2738 25.6376 55.6191 25.3212M59.2293 24.0495C59.54 23.765 59.7717 23.5393 59.9288 23.371C60.0078 23.2863 60.0726 23.2111 60.12 23.147C60.1436 23.1151 60.1669 23.0806 60.186 23.0451C60.2014 23.0164 60.2308 22.9572 60.2365 22.8828L60.2371 22.8755L60.2373 22.8682C60.2411 22.7318 60.2045 22.5973 60.132 22.4817C60.0702 22.3833 59.9848 22.3023 59.884 22.2459C59.7716 22.1425 59.6327 22.0715 59.4822 22.0412L59.4529 22.0353H59.423C59.3348 22.0353 59.2611 22.0701 59.2283 22.0864C59.1845 22.1081 59.1389 22.1363 59.0939 22.167C59.0031 22.2287 58.8906 22.3167 58.7586 22.4279C58.4941 22.6508 58.1317 22.9837 57.6731 23.4306L57.1055 23.955L56.5342 24.4795L55.6191 25.3212M59.2293 24.0495C59.2255 24.053 59.2217 24.0565 59.2179 24.0599L59.0154 23.8386L59.2396 24.0379C59.2362 24.0418 59.2327 24.0457 59.2293 24.0495ZM55.6191 25.3212C55.619 25.3212 55.6191 25.3211 55.6191 25.3212ZM46.7111 21.5901C46.3091 21.9477 45.9713 22.3726 45.7131 22.8464C45.4532 23.2337 45.2673 23.5702 45.1554 23.856L46.7111 21.5901Z" stroke="#397B5C" stroke-width="0.6"/>
<path d="M62.2254 21.2557L62.2281 21.2368C64.7464 18.5978 66.9571 15.6813 68.8176 12.5434L68.8212 12.5372L69.734 10.9114C70.0539 10.3838 70.3274 9.82937 70.5514 9.25441C71.0831 8.1795 71.5087 7.05532 71.8223 5.8978L71.8256 5.8854L71.8279 5.87276L71.8847 5.55874L71.8895 5.53226V5.50535V5.2527C71.92 4.83278 71.832 4.41265 71.6353 4.04021C71.4367 3.66421 71.1355 3.35224 70.7667 3.14056L70.7553 3.13397L70.7433 3.12842C70.4701 3.00215 70.172 2.93905 69.8711 2.94378C69.4968 2.94988 69.1273 3.02985 68.784 3.17908L68.7634 3.18803L68.7444 3.19996C68.1801 3.55346 67.6615 3.97527 67.2006 4.45583L67.195 4.46167L67.1897 4.46779C67.1606 4.5016 67.1313 4.53552 67.1017 4.56977C66.9025 4.80042 66.6901 5.04625 66.4373 5.37639L66.4298 5.38657L65.7732 6.32315C65.773 6.3235 65.7727 6.32385 65.7725 6.32421C65.1238 7.23259 64.5567 8.19653 64.0777 9.20476C62.8779 11.5686 61.9152 14.0455 61.2037 16.5992C61.1747 16.6872 61.1439 16.7789 61.112 16.8742C60.9558 17.3397 60.771 17.8906 60.6243 18.5115L60.6226 18.5188L60.2282 20.3948L60.1159 20.7478L60.108 20.7727L60.1045 20.7987L60.0567 21.1529C60.0022 21.232 59.9377 21.3038 59.8649 21.3667L59.8587 21.3721L59.8527 21.3779L59.6799 21.5446L59.4729 21.6877L59.455 21.7001L59.4391 21.7149C59.0232 22.1017 58.6327 22.5151 58.2701 22.9523L58.2366 22.9926L58.2188 23.0418L58.1821 23.1434C58.1537 23.1801 58.1308 23.2208 58.1141 23.2644C58.0885 23.3312 58.0783 23.4028 58.0842 23.4739C58.0864 23.6396 58.1251 23.8229 58.2546 23.9674C58.3939 24.123 58.5884 24.1788 58.7849 24.1788C58.8471 24.1788 58.8979 24.1639 58.9313 24.1518C58.9587 24.1418 58.9868 24.129 59.0042 24.121L59.0092 24.1187C59.0474 24.1013 59.0894 24.0825 59.1554 24.0634L59.2524 24.0355L59.3127 23.9545C59.4199 23.8107 59.5434 23.68 59.6808 23.565C59.6478 23.8421 59.6299 24.121 59.6274 24.4005V24.4032V24.8185C59.5847 25.9611 59.9026 27.0883 60.5362 28.0403L60.5393 28.0449C61.156 28.9354 62.0589 29.588 63.0978 29.8941C63.7836 30.1234 64.5251 30.1246 65.2115 29.8977C65.9263 29.7419 66.601 29.4392 67.1927 29.0087L67.2011 29.0025L67.2091 28.9958L67.8967 28.4184L68.5244 27.8942C68.5243 27.8943 68.5244 27.8941 68.5244 27.8942C68.9787 27.5159 69.4056 27.1053 69.8015 26.6661C70.0021 26.4822 70.6325 25.8448 71.5861 24.7634C71.5865 24.7629 71.5869 24.7625 71.5874 24.762L72.1561 24.1335L72.1579 24.1314L72.6588 23.5675C72.8355 23.3823 72.9794 23.2232 73.092 23.0985C73.21 22.9679 73.283 22.8873 73.3285 22.8445L73.3702 22.8052L73.3945 22.7534C73.4489 22.6372 73.4938 22.5168 73.5286 22.3933L73.5398 22.3534V22.312C73.5398 22.1403 73.5023 21.9686 73.4059 21.8306C73.303 21.6836 73.1421 21.5911 72.9525 21.5911H72.9364L72.9204 21.5928C72.7625 21.6098 72.6098 21.6587 72.4714 21.7365L72.4254 21.7623L72.391 21.8023C72.2649 21.9489 72.1094 22.1041 71.9217 22.2917C71.7773 22.4359 71.6138 22.5993 71.4299 22.7924C71.4296 22.7927 71.4293 22.793 71.4291 22.7933L70.0648 24.2041C68.8095 25.4094 68.0141 26.1449 67.6152 26.5105C67.27 26.827 66.9198 27.1027 66.6099 27.3467C66.569 27.3789 66.5289 27.4105 66.4895 27.4416L66.4798 27.4496C66.1045 27.7725 65.6853 28.0406 65.2348 28.2459L65.2274 28.2493L65.2201 28.2531C64.8308 28.457 64.3839 28.5228 63.9524 28.4397C63.5212 28.3568 63.131 28.1301 62.8452 27.7968C62.1527 26.9745 61.8313 25.8957 61.8309 24.5796C61.841 24.0138 61.8964 23.4498 61.9965 22.8929L61.9986 22.8801L62.1118 22.0441L62.1121 22.0416L62.2254 21.2557ZM70.0022 6.42635L69.997 6.43816L69.9928 6.45038L69.7073 7.28362L69.4285 8.00869L68.7458 9.51974C68.4975 10.0249 68.2468 10.4885 68.0345 10.8811C68.0076 10.9308 67.9814 10.9794 67.9558 11.0267C66.4944 13.6467 64.7654 16.1069 62.7973 18.3681C62.8133 18.3123 62.8299 18.2547 62.8473 18.1953C63.7517 15.2243 65.2284 11.8304 67.3354 8.00583C67.3353 8.00603 67.3355 8.00564 67.3354 8.00583L67.4287 7.83791L67.5636 7.7136L67.6106 7.6703L67.6358 7.6116L67.7388 7.37239C68.0068 6.96887 68.2999 6.58256 68.6163 6.21576L68.6235 6.20747L68.63 6.19868C69.0539 5.62804 69.416 5.21028 69.7063 4.93844C69.8516 4.80231 69.9724 4.70905 70.0681 4.65151C70.1156 4.62299 70.1529 4.60571 70.1805 4.59595C70.1873 4.59356 70.1931 4.59174 70.1981 4.59036C70.2045 4.60517 70.2119 4.62439 70.221 4.65007L70.247 4.7234L70.2586 4.73362C70.2591 4.74201 70.2595 4.75196 70.2598 4.76376C70.2606 4.79182 70.2606 4.82364 70.2606 4.86393V5.33139C70.2427 5.70916 70.1551 6.08039 70.0022 6.42635Z" fill="#397B5C"/>
<path d="M68.5244 27.8942L67.8967 28.4184L67.2091 28.9958L67.2011 29.0025L67.1927 29.0087C66.601 29.4392 65.9263 29.7419 65.2115 29.8977C64.5251 30.1246 63.7836 30.1234 63.0978 29.8941C62.0589 29.588 61.156 28.9354 60.5393 28.0449L60.5362 28.0403C59.9026 27.0883 59.5847 25.9611 59.6274 24.8185V24.4032V24.4005C59.6299 24.121 59.6478 23.8421 59.6808 23.565C59.5434 23.68 59.4199 23.8107 59.3127 23.9545L59.2524 24.0355L59.1554 24.0634C59.0894 24.0825 59.0474 24.1013 59.0092 24.1187L59.0042 24.121C58.9868 24.129 58.9587 24.1418 58.9313 24.1518C58.8979 24.1639 58.8471 24.1788 58.7849 24.1788C58.5884 24.1788 58.3939 24.123 58.2546 23.9674C58.1251 23.8229 58.0864 23.6396 58.0842 23.4739C58.0783 23.4028 58.0885 23.3312 58.1141 23.2644C58.1308 23.2208 58.1537 23.1801 58.1821 23.1434L58.2188 23.0418L58.2366 22.9926L58.2701 22.9523C58.6327 22.5151 59.0232 22.1017 59.4391 21.7149L59.455 21.7001L59.4729 21.6877L59.6799 21.5446L59.8527 21.3779L59.8587 21.3721L59.8649 21.3667C59.9377 21.3038 60.0022 21.232 60.0567 21.1529L60.1045 20.7987L60.108 20.7727L60.1159 20.7478L60.2282 20.3948L60.6226 18.5188L60.6243 18.5115C60.771 17.8906 60.9558 17.3397 61.112 16.8742C61.1439 16.7789 61.1747 16.6872 61.2037 16.5992C61.9152 14.0455 62.8779 11.5686 64.0777 9.20476C64.5567 8.19653 65.1238 7.23259 65.7725 6.32421C65.7727 6.32385 65.773 6.3235 65.7732 6.32315L66.4298 5.38657L66.4373 5.37639C66.6901 5.04625 66.9025 4.80042 67.1017 4.56977C67.1313 4.53552 67.1606 4.5016 67.1897 4.46779L67.195 4.46167L67.2006 4.45583C67.6615 3.97527 68.1801 3.55346 68.7444 3.19996L68.7634 3.18803L68.784 3.17908C69.1273 3.02985 69.4968 2.94988 69.8711 2.94378C70.172 2.93905 70.4701 3.00215 70.7433 3.12842L70.7553 3.13397L70.7667 3.14056C71.1355 3.35224 71.4367 3.66421 71.6353 4.04021C71.832 4.41265 71.92 4.83278 71.8895 5.2527V5.50535V5.53226L71.8847 5.55874L71.8279 5.87276L71.8256 5.8854L71.8223 5.8978C71.5087 7.05532 71.0831 8.1795 70.5514 9.25441C70.3274 9.82937 70.0539 10.3838 69.734 10.9114L68.8212 12.5372L68.8176 12.5434C66.9571 15.6813 64.7464 18.5978 62.2281 21.2368L62.2254 21.2557L62.1121 22.0416L62.1118 22.0441L61.9986 22.8801L61.9965 22.8929C61.8964 23.4498 61.841 24.0138 61.8309 24.5796C61.8313 25.8957 62.1527 26.9745 62.8452 27.7968C63.131 28.1301 63.5212 28.3568 63.9524 28.4397C64.3839 28.5228 64.8308 28.457 65.2201 28.2531L65.2274 28.2493L65.2348 28.2459C65.6853 28.0406 66.1045 27.7725 66.4798 27.4496L66.4895 27.4416C66.5289 27.4105 66.569 27.3789 66.6099 27.3467C66.9198 27.1027 67.27 26.827 67.6152 26.5105C68.0141 26.1449 68.8095 25.4094 70.0648 24.2041L71.4291 22.7933C71.4293 22.793 71.4296 22.7927 71.4299 22.7924C71.6138 22.5993 71.7773 22.4359 71.9217 22.2917C72.1094 22.1041 72.2649 21.9489 72.391 21.8023L72.4254 21.7623L72.4714 21.7365C72.6098 21.6587 72.7625 21.6098 72.9204 21.5928L72.9364 21.5911H72.9525C73.1421 21.5911 73.303 21.6836 73.4059 21.8306C73.5023 21.9686 73.5398 22.1403 73.5398 22.312V22.3534L73.5286 22.3933C73.4938 22.5168 73.4489 22.6372 73.3945 22.7534L73.3702 22.8052L73.3285 22.8445C73.283 22.8873 73.21 22.9679 73.092 23.0985C72.9794 23.2232 72.8355 23.3823 72.6588 23.5675L72.1579 24.1314L72.1561 24.1335L71.5874 24.762C71.5869 24.7625 71.5865 24.7629 71.5861 24.7634C70.6325 25.8448 70.0021 26.4822 69.8015 26.6661C69.4056 27.1053 68.9787 27.5159 68.5244 27.8942ZM68.5244 27.8942C68.5244 27.8941 68.5243 27.8943 68.5244 27.8942ZM67.3354 8.00583C65.2284 11.8304 63.7517 15.2243 62.8473 18.1953C62.8299 18.2547 62.8133 18.3123 62.7973 18.3681C64.7654 16.1069 66.4944 13.6467 67.9558 11.0267C67.9814 10.9794 68.0076 10.9308 68.0345 10.8811C68.2468 10.4885 68.4975 10.0249 68.7458 9.51974L69.4285 8.00869L69.7073 7.28362L69.9928 6.45038L69.997 6.43816L70.0022 6.42635C70.1551 6.08039 70.2427 5.70916 70.2606 5.33139V4.86393C70.2606 4.82364 70.2606 4.79182 70.2598 4.76376C70.2595 4.75196 70.2591 4.74201 70.2586 4.73362L70.247 4.7234L70.221 4.65007C70.2119 4.62439 70.2045 4.60517 70.1981 4.59036C70.1931 4.59174 70.1873 4.59356 70.1805 4.59595C70.1529 4.60571 70.1156 4.62299 70.0681 4.65151C69.9724 4.70905 69.8516 4.80231 69.7063 4.93844C69.416 5.21028 69.0539 5.62804 68.63 6.19868L68.6235 6.20747L68.6163 6.21576C68.2999 6.58256 68.0068 6.96887 67.7388 7.37239L67.6358 7.6116L67.6106 7.6703L67.5636 7.7136L67.4287 7.83791L67.3354 8.00583ZM67.3354 8.00583C67.3355 8.00564 67.3353 8.00603 67.3354 8.00583Z" stroke="#397B5C" stroke-width="0.6"/>
<path d="M73.4902 22.8162L73.4837 22.8318L72.8555 24.3557L72.8512 24.3666C72.4687 25.408 72.2506 26.5027 72.2051 27.6112L72.2048 27.6236C72.2048 28.0126 72.3028 28.3658 72.5582 28.6194C72.8131 28.8726 73.1741 28.9759 73.5905 28.9759H73.5979L73.6053 28.9755C74.7627 28.9185 76.075 28.4195 77.4175 27.504L77.4257 27.4984L77.4335 27.4923C77.8382 27.1752 78.3592 26.7491 78.8813 26.2677C78.8812 26.2679 78.8814 26.2676 78.8813 26.2677L79.4518 25.7439L79.6823 25.5334L79.6839 25.5319L79.9103 25.3222L79.9111 25.3215L79.9575 25.2788C80.5637 24.7209 81.1244 24.205 81.5234 23.7862C81.7794 23.5235 81.986 23.3069 82.1283 23.1404C82.1991 23.0576 82.2609 22.9793 82.306 22.9087C82.3286 22.8735 82.3515 22.8332 82.3691 22.7902C82.3851 22.7508 82.4066 22.6856 82.4019 22.6079L82.3999 22.576L82.3913 22.5452C82.3461 22.3834 82.2637 22.2344 82.1506 22.1102L82.1043 22.0591L82.0402 22.0335C81.9169 21.9841 81.7898 21.9447 81.6602 21.9157L81.5836 21.8985L81.5084 21.9211C81.4487 21.939 81.3906 21.9716 81.3471 21.998C81.2975 22.028 81.2403 22.0665 81.1769 22.112C81.0498 22.2033 80.8859 22.3309 80.6873 22.4939C80.2904 22.8198 79.7449 23.2958 79.0583 23.9271L78.2653 24.5907L78.2551 24.5996L77.8542 24.9671L77.8448 24.9761L77.512 25.309C77.5122 25.3088 77.5118 25.3091 77.512 25.309C77.1983 25.619 76.8641 25.9087 76.5127 26.1752L76.4999 26.1849L76.4883 26.1958L76.4249 26.2555L76.3202 26.2884L76.2683 26.3046L76.2255 26.3381L75.9036 26.5891C75.6398 26.7539 75.3672 26.9042 75.087 27.0393L75.0757 27.0451C74.7809 27.203 74.5925 27.2672 74.4887 27.2818C74.4971 26.7065 74.7637 25.712 75.2717 24.3098L75.6019 23.4284L75.9988 22.5452L76.0037 22.5336C76.1536 22.1588 76.2701 21.8238 76.3694 21.5329C76.3813 21.498 76.3929 21.464 76.4043 21.4306C76.489 21.1821 76.5597 20.9746 76.6313 20.7977L76.6406 20.7746L76.646 20.7504L76.7629 20.2259L76.7701 20.1937V20.1606C76.7701 19.8889 76.6341 19.6727 76.4004 19.5433C76.1911 19.4273 75.9157 19.3862 75.6116 19.3862C75.4535 19.3862 75.2891 19.4641 75.1506 19.5437C74.9979 19.6315 74.8178 19.7575 74.6131 19.9157C74.2031 20.2324 73.6676 20.6988 73.009 21.3039C72.3499 21.8842 71.8305 22.3749 71.4455 22.7687C71.0652 23.1578 70.8018 23.4669 70.6695 23.6809L70.6179 23.7644L70.6256 23.8622C70.6337 23.9654 70.6632 24.0659 70.7122 24.1571C70.7583 24.2429 70.8206 24.3188 70.8956 24.3806C71.0267 24.5064 71.2644 24.6572 71.5389 24.5391C71.6199 24.5101 71.7033 24.4597 71.7801 24.4068C71.8692 24.3454 71.9725 24.2643 72.0883 24.1646C72.3185 23.9665 72.6095 23.6855 72.9535 23.3168C72.9843 23.2885 73.0153 23.2601 73.0466 23.2315C73.1881 23.1021 73.3353 22.9675 73.4902 22.8162ZM77.3904 15.6027L77.3827 15.6019L77.375 15.6016C77.1837 15.5934 76.9939 15.6372 76.8256 15.7283C76.6633 15.8162 76.5269 15.9449 76.4299 16.1015C76.2333 16.3568 76.1164 16.6646 76.094 16.9863L76.0933 16.9967V17.0071C76.0933 17.341 76.1756 17.6482 76.4101 17.865C76.6395 18.0771 76.9574 18.1489 77.3053 18.1489C77.7496 18.1489 78.1328 18.0427 78.4074 17.7968C78.6864 17.5468 78.8071 17.1942 78.8079 16.8006C78.8124 16.6091 78.7601 16.4206 78.6573 16.2588C78.5588 16.1035 78.4181 15.9797 78.2521 15.9016C77.9931 15.7344 77.6976 15.6318 77.3904 15.6027Z" fill="#397B5C"/>
<path d="M78.8813 26.2677C78.3592 26.7491 77.8382 27.1752 77.4335 27.4923L77.4257 27.4984L77.4175 27.504C76.075 28.4195 74.7627 28.9185 73.6053 28.9755L73.5979 28.9759H73.5905C73.1741 28.9759 72.8131 28.8726 72.5582 28.6194C72.3028 28.3658 72.2048 28.0126 72.2048 27.6236L72.2051 27.6112C72.2506 26.5027 72.4687 25.408 72.8512 24.3666L72.8555 24.3557L73.4837 22.8318L73.4902 22.8162C73.3353 22.9675 73.1881 23.1021 73.0466 23.2315C73.0153 23.2601 72.9843 23.2885 72.9535 23.3168C72.6095 23.6855 72.3185 23.9665 72.0883 24.1646C71.9725 24.2643 71.8692 24.3454 71.7801 24.4068C71.7033 24.4597 71.6199 24.5101 71.5389 24.5391C71.2644 24.6572 71.0267 24.5064 70.8956 24.3806C70.8206 24.3188 70.7583 24.2429 70.7122 24.1571C70.6632 24.0659 70.6337 23.9654 70.6256 23.8622L70.6179 23.7644L70.6695 23.6809C70.8018 23.4669 71.0652 23.1578 71.4455 22.7687C71.8305 22.3749 72.3499 21.8842 73.009 21.3039C73.6676 20.6988 74.2031 20.2324 74.6131 19.9157C74.8178 19.7575 74.9979 19.6315 75.1506 19.5437C75.2891 19.4641 75.4535 19.3862 75.6116 19.3862C75.9157 19.3862 76.1911 19.4273 76.4004 19.5433C76.6341 19.6727 76.7701 19.8889 76.7701 20.1606V20.1937L76.7629 20.2259L76.646 20.7504L76.6406 20.7746L76.6313 20.7977C76.5597 20.9746 76.489 21.1821 76.4043 21.4306C76.3929 21.464 76.3813 21.498 76.3694 21.5329C76.2701 21.8238 76.1536 22.1588 76.0037 22.5336L75.9988 22.5452L75.6019 23.4284L75.2717 24.3098C74.7637 25.712 74.4971 26.7065 74.4887 27.2818C74.5925 27.2672 74.7809 27.203 75.0757 27.0451L75.087 27.0393C75.3672 26.9042 75.6398 26.7539 75.9036 26.5891L76.2255 26.3381L76.2683 26.3046L76.3202 26.2884L76.4249 26.2555L76.4883 26.1958L76.4999 26.1849L76.5127 26.1752C76.8641 25.9087 77.1983 25.619 77.512 25.309M78.8813 26.2677C78.8814 26.2676 78.8812 26.2679 78.8813 26.2677ZM78.8813 26.2677L79.4518 25.7439L79.6823 25.5334L79.6839 25.5319L79.9103 25.3222L79.9111 25.3215L79.9575 25.2788C80.5637 24.7209 81.1244 24.205 81.5234 23.7862C81.7794 23.5235 81.986 23.3069 82.1283 23.1404C82.1991 23.0576 82.2609 22.9793 82.306 22.9087C82.3286 22.8735 82.3515 22.8332 82.3691 22.7902C82.3851 22.7508 82.4066 22.6856 82.4019 22.6079L82.3999 22.576L82.3913 22.5452C82.3461 22.3834 82.2637 22.2344 82.1506 22.1102L82.1043 22.0591L82.0402 22.0335C81.9169 21.9841 81.7898 21.9447 81.6602 21.9157L81.5836 21.8985L81.5084 21.9211C81.4487 21.939 81.3906 21.9716 81.3471 21.998C81.2975 22.028 81.2403 22.0665 81.1769 22.112C81.0498 22.2033 80.8859 22.3309 80.6873 22.4939C80.2904 22.8198 79.7449 23.2958 79.0583 23.9271L78.2653 24.5907L78.2551 24.5996L77.8542 24.9671L77.8448 24.9761L77.512 25.309M77.512 25.309C77.5118 25.3091 77.5122 25.3088 77.512 25.309ZM74.4911 27.3413C74.4911 27.3413 74.4909 27.3409 74.4908 27.3402M77.3904 15.6027L77.3827 15.6019L77.375 15.6016C77.1837 15.5934 76.9939 15.6372 76.8256 15.7283C76.6633 15.8162 76.5269 15.9449 76.4299 16.1015C76.2333 16.3568 76.1164 16.6646 76.094 16.9863L76.0933 16.9967V17.0071C76.0933 17.341 76.1756 17.6482 76.4101 17.865C76.6395 18.0771 76.9574 18.1489 77.3053 18.1489C77.7496 18.1489 78.1328 18.0427 78.4074 17.7968C78.6864 17.5468 78.8071 17.1942 78.8079 16.8006C78.8124 16.6091 78.7601 16.4206 78.6573 16.2588C78.5588 16.1035 78.4181 15.9797 78.2521 15.9016C77.9931 15.7344 77.6976 15.6318 77.3904 15.6027Z" stroke="#397B5C" stroke-width="0.6"/>
<path d="M82.1845 25.9747L82.1894 25.9698L82.1949 25.9649C82.3388 25.8344 82.4814 25.7164 82.6182 25.6032L82.6344 25.5898C82.7776 25.4713 82.9148 25.3573 83.052 25.2313L83.0694 25.2153L83.089 25.2023C83.4774 24.9444 83.8146 24.6892 84.1581 24.4258L84.1641 24.4212L84.1703 24.4169C86.2481 22.9833 88.1362 22.2093 89.7685 22.2091C89.7682 22.2091 89.7687 22.2091 89.7685 22.2091L82.1845 25.9747ZM82.1845 25.9747C82.3231 25.5952 82.4733 25.1791 82.6326 24.7267L82.6366 24.7147L83.0363 23.4057L83.4926 22.0432L83.5082 21.9968V21.9479V21.841C83.5082 21.5053 83.2452 21.3229 83.0803 21.2194C82.8603 21.0823 82.6045 21.0115 82.3454 21.0165C82.1187 21.0189 81.9271 21.1673 81.7826 21.3146C81.6248 21.4755 81.4578 21.7036 81.2814 21.9875C80.9272 22.5572 80.5057 23.3996 80.0174 24.5059L80.0157 24.5098C79.5565 25.5907 79.2096 26.4839 78.977 27.1941C78.7473 27.8951 78.6188 28.4473 78.6188 28.8329V28.8403L78.6192 28.8477C78.6271 29.0076 78.6903 29.1598 78.798 29.2783C78.9005 29.3911 79.0373 29.4666 79.1868 29.4935C79.4492 29.568 79.7206 29.6063 79.9934 29.6073H79.9945C80.2276 29.6073 80.4895 29.4874 80.7404 29.3309C81.0042 29.1663 81.3049 28.9296 81.6274 28.6327L81.6346 28.6259L82.4326 27.8412C82.5665 27.7186 82.7021 27.6067 82.8294 27.5025C82.8397 27.4941 82.85 27.4857 82.8603 27.4773C82.9678 27.3894 83.0736 27.3029 83.1582 27.2247C84.7191 26.104 86.0035 25.2618 87.0143 24.7006C87.5214 24.4191 87.9543 24.2113 88.3148 24.0745C88.6795 23.9362 88.9509 23.8781 89.1411 23.8781H89.1616L89.1819 23.8753C89.2139 23.8709 89.2464 23.8741 89.277 23.8844C89.3075 23.8948 89.3352 23.9122 89.3579 23.9351C89.3806 23.9581 89.3976 23.986 89.4076 24.0166C89.4177 24.0473 89.4204 24.0799 89.4156 24.1118L89.4131 24.129L89.4125 24.1464C89.3975 24.6133 89.2731 25.0702 89.0492 25.4803C88.7999 25.9224 88.6516 26.4141 88.6147 26.9204L88.614 26.9312V26.9421C88.614 27.34 88.764 27.6742 89.0758 27.8961C89.3699 28.1053 89.7709 28.1875 90.2268 28.1875C91.545 28.1875 93.0442 27.3297 94.7666 25.8021C95.4037 25.2575 96.0028 24.6698 96.5596 24.0434C96.9246 23.6703 97.2558 23.2657 97.5494 22.8342C97.638 22.7265 97.6334 22.5999 97.618 22.5283C97.6014 22.4517 97.5649 22.3865 97.5354 22.3411C97.4735 22.2457 97.3823 22.1478 97.2884 22.0613L97.2505 22.0264L97.203 22.0061C97.0987 21.9615 96.9918 21.923 96.883 21.8908L96.7201 21.8425L96.5949 21.9574L95.7364 22.7458L95.7356 22.7465C95.5951 22.8765 95.4655 23.0097 95.3529 23.1264C95.3414 23.1384 95.33 23.1502 95.3189 23.1617C95.2187 23.2657 95.1371 23.3505 95.0678 23.4143L94.5533 23.8887L94.3257 24.0996L94.3054 24.1184L94.2889 24.1406L94.2015 24.258L94.0149 24.387L93.9863 24.4067L93.963 24.4324C93.7809 24.6336 93.587 24.8006 93.3856 24.9742C93.2825 25.063 93.1774 25.1535 93.071 25.2512C92.6224 25.6358 92.2389 25.9108 91.9259 26.0881C91.6036 26.2707 91.3875 26.3314 91.2658 26.3314H91.2192L91.1738 26.31C91.1899 26.1371 91.2207 25.9658 91.2659 25.798L91.5412 25.1502C91.7367 24.7042 91.8575 24.2291 91.8987 23.7438L91.8999 23.7302L91.8998 23.7165C91.8981 23.4565 91.8206 23.2026 91.6767 22.986C91.5337 22.7708 91.3314 22.6017 91.0944 22.4992L82.1845 25.9747ZM81.4243 28.412C80.7963 28.9899 80.2818 29.3073 79.9945 29.3073L81.4243 28.412Z" fill="#397B5C"/>
<path d="M82.1845 25.9747L82.1894 25.9698L82.1949 25.9649C82.3388 25.8344 82.4814 25.7164 82.6182 25.6032L82.6344 25.5898C82.7776 25.4713 82.9148 25.3573 83.052 25.2313L83.0694 25.2153L83.089 25.2023C83.4774 24.9444 83.8146 24.6892 84.1581 24.4258L84.1641 24.4212L84.1703 24.4169C86.2481 22.9833 88.1362 22.2093 89.7685 22.2091M82.1845 25.9747L89.7685 22.2091M82.1845 25.9747C82.3231 25.5952 82.4733 25.1791 82.6326 24.7267L82.6366 24.7147L83.0363 23.4057L83.4926 22.0432L83.5082 21.9968V21.9479V21.841C83.5082 21.5053 83.2452 21.3229 83.0803 21.2194C82.8603 21.0823 82.6045 21.0115 82.3454 21.0165C82.1187 21.0189 81.9271 21.1673 81.7826 21.3146C81.6248 21.4755 81.4578 21.7036 81.2814 21.9875C80.9272 22.5572 80.5057 23.3996 80.0174 24.5059L80.0157 24.5098C79.5565 25.5907 79.2096 26.4839 78.977 27.1941C78.7473 27.8951 78.6188 28.4473 78.6188 28.8329V28.8403L78.6192 28.8477C78.6271 29.0076 78.6903 29.1598 78.798 29.2783C78.9005 29.3911 79.0373 29.4666 79.1868 29.4935C79.4492 29.568 79.7206 29.6063 79.9934 29.6073H79.9945C80.2276 29.6073 80.4895 29.4874 80.7404 29.3309C81.0042 29.1663 81.3049 28.9296 81.6274 28.6327L81.6346 28.6259L82.4326 27.8412C82.5665 27.7186 82.7021 27.6067 82.8294 27.5025C82.8397 27.4941 82.85 27.4857 82.8603 27.4773C82.9678 27.3894 83.0736 27.3029 83.1582 27.2247C84.7191 26.104 86.0035 25.2618 87.0143 24.7006C87.5214 24.4191 87.9543 24.2113 88.3148 24.0745C88.6795 23.9362 88.9509 23.8781 89.1411 23.8781H89.1616L89.1819 23.8753C89.2139 23.8709 89.2464 23.8741 89.277 23.8844C89.3075 23.8948 89.3352 23.9122 89.3579 23.9351M82.1845 25.9747L91.0944 22.4992C91.3314 22.6017 91.5337 22.7708 91.6767 22.986C91.8206 23.2026 91.8981 23.4565 91.8998 23.7165L91.8999 23.7302L91.8987 23.7438C91.8575 24.2291 91.7367 24.7042 91.5412 25.1502L91.2659 25.798C91.2207 25.9658 91.1899 26.1371 91.1738 26.31L91.2192 26.3314H91.2658C91.3875 26.3314 91.6036 26.2707 91.9259 26.0881C92.2389 25.9108 92.6224 25.6358 93.071 25.2512C93.1774 25.1535 93.2825 25.063 93.3856 24.9742C93.587 24.8006 93.7809 24.6336 93.963 24.4324L93.9863 24.4067L94.0149 24.387L94.2015 24.258L94.2889 24.1406L94.3054 24.1184L94.3257 24.0996L94.5533 23.8887L95.0678 23.4143C95.1371 23.3505 95.2187 23.2657 95.3189 23.1617C95.33 23.1502 95.3414 23.1384 95.3529 23.1264C95.4655 23.0097 95.5951 22.8765 95.7356 22.7465L95.7364 22.7458L96.5949 21.9574L96.7201 21.8425L96.883 21.8908C96.9918 21.923 97.0987 21.9615 97.203 22.0061L97.2505 22.0264L97.2884 22.0613C97.3823 22.1478 97.4735 22.2457 97.5354 22.3411C97.5649 22.3865 97.6014 22.4517 97.618 22.5283C97.6334 22.5999 97.638 22.7265 97.5494 22.8342C97.2558 23.2657 96.9246 23.6703 96.5596 24.0434C96.0028 24.6698 95.4037 25.2575 94.7666 25.8021C93.0442 27.3297 91.545 28.1875 90.2268 28.1875C89.7709 28.1875 89.3699 28.1053 89.0758 27.8961C88.764 27.6742 88.614 27.34 88.614 26.9421V26.9312L88.6147 26.9204C88.6516 26.4141 88.7999 25.9224 89.0492 25.4803C89.2731 25.0702 89.3975 24.6133 89.4125 24.1464L89.4131 24.129L89.4156 24.1118C89.4204 24.0799 89.4177 24.0473 89.4076 24.0166C89.3976 23.986 89.3806 23.9581 89.3579 23.9351M89.7685 22.2091C89.7687 22.2091 89.7682 22.2091 89.7685 22.2091ZM89.3579 23.9351L89.5713 23.7242M81.4243 28.412C80.7963 28.9899 80.2818 29.3073 79.9945 29.3073L81.4243 28.412Z" stroke="#397B5C" stroke-width="0.6"/>
<path d="M102.389 25.824C103.599 25.3024 105.231 24.3263 106.917 23.2575C107.613 22.8158 108.318 22.3591 109.001 21.9164C110.239 21.1144 111.405 20.3585 112.324 19.8215L112.331 19.8176L112.337 19.814L112.531 19.7138L112.616 19.6697L112.711 19.6833L112.825 19.6994C112.825 19.6995 112.826 19.6996 112.827 19.6997C113.018 19.7249 113.217 19.7846 113.358 19.9249C113.516 20.0815 113.552 20.2859 113.513 20.4818C113.502 20.5523 113.475 20.6193 113.432 20.677M102.389 25.824L113.19 20.4993ZM102.389 25.824C102.757 24.7362 103.079 23.6328 103.353 22.5171L103.355 22.5088L103.356 22.5005C103.371 22.4193 103.401 22.3415 103.443 22.2705C103.508 22.1699 103.556 22.0598 103.587 21.9442C103.592 21.9384 103.599 21.9311 103.608 21.9224C103.652 21.8791 103.722 21.8182 103.823 21.7376C104.024 21.5782 104.324 21.36 104.728 21.0786C105.105 20.8386 105.462 20.5662 105.792 20.2645C106.126 20.0114 106.442 19.7345 106.736 19.4362C107.184 18.9847 107.567 18.5615 107.884 18.1732C108.261 17.7436 108.507 17.2144 108.591 16.6489C108.624 16.5133 108.628 16.3718 108.6 16.2347C108.571 16.0911 108.509 15.9562 108.419 15.8407L108.413 15.8331L108.407 15.826C108.186 15.5769 107.879 15.4219 107.547 15.3926C105.953 15.1802 104.503 15.9247 103.269 17.5111L103.264 17.5174C102.792 18.1589 102.387 18.8479 102.058 19.5733C101.791 20.1349 101.587 20.7238 101.448 21.3294L101.171 21.4266L100.757 21.562C100.81 21.5347 100.857 21.4994 100.899 21.4571C100.98 21.3744 101.035 21.269 101.055 21.1549C101.099 20.9368 101.081 20.7104 101.003 20.502C100.924 20.2929 100.787 20.1105 100.608 19.9762C100.258 19.7008 99.8364 19.5316 99.393 19.4886C98.4354 19.3475 97.5967 19.7007 96.7716 20.438L96.7695 20.4399C96.4692 20.7134 96.2121 21.0307 96.0069 21.3811C95.8438 21.6399 95.7201 21.9214 95.6398 22.2165L95.6373 22.2255L95.6354 22.2347C95.564 22.5809 95.6334 22.9072 95.878 23.1544C96.1067 23.3855 96.4505 23.5077 96.8466 23.5583L96.8565 23.5596L96.8665 23.5602C97.6253 23.606 98.3866 23.5412 99.1266 23.3676C99.7055 23.265 100.276 23.1218 100.834 22.9391L100.67 23.3751L100.668 23.3784L100.257 24.5042L100.256 24.507C100.006 25.2165 99.7943 25.9393 99.6233 26.6721C99.6194 26.6748 99.615 26.6777 99.6102 26.6808C99.5558 26.7159 99.4699 26.7601 99.3525 26.8114C99.1202 26.9129 98.8054 27.0248 98.4714 27.1338C98.1392 27.2423 97.7956 27.3455 97.5084 27.4301C97.4199 27.4562 97.3357 27.4808 97.2587 27.5033C97.0905 27.5525 96.956 27.5917 96.8833 27.6152C94.658 28.3284 92.1942 28.5187 89.7529 28.7072C89.2905 28.7429 88.8289 28.7786 88.3699 28.8177C88.369 28.8178 88.3682 28.8179 88.3673 28.8179L88.3928 29.1169C85.4562 29.3156 82.5316 29.6635 79.6303 30.1591L102.389 25.824ZM113.432 20.677L113.19 20.4993ZM113.432 20.677L113.19 20.4993ZM113.432 20.677C113.39 20.7338 113.336 20.7795 113.273 20.8106ZM113.19 20.4993C113.176 20.5192 113.156 20.5349 113.133 20.5448ZM113.273 20.8106L113.284 20.8044L113.279 20.7966C113.28 20.7956 113.281 20.7947 113.282 20.7937L113.271 20.7828L113.133 20.5448M113.273 20.8106C113.268 20.8133 113.262 20.8158 113.257 20.8182C113.255 20.8197 113.254 20.8212 113.252 20.8227L113.22 20.8412L113.07 20.5816L113.211 20.7222M113.273 20.8106L113.211 20.7222ZM113.133 20.5448L113.211 20.7222ZM113.133 20.5448L113.211 20.7222ZM107.136 24.4581C107.137 24.4574 107.138 24.4566 107.14 24.4558L106.973 24.2061L107.133 24.4604C107.134 24.4596 107.135 24.4589 107.136 24.4581ZM76.2668 32.4855C75.9346 34.0521 76.5385 35.442 77.8956 36.7089L77.9018 36.7147L77.9083 36.7201C79.3878 37.9531 81.2028 38.7142 83.1191 38.9055C87.1465 39.4659 91.24 38.5385 94.6326 36.297C97.4331 34.5164 99.6813 31.99 101.124 29.0018C101.217 28.8462 101.306 28.691 101.394 28.538L101.422 28.4886L101.431 28.4323C101.443 28.3454 101.474 28.2622 101.521 28.188L101.535 28.1666L101.544 28.1432C101.584 28.0486 101.619 27.9537 101.646 27.8842C101.658 27.8521 101.668 27.8255 101.675 27.8067C101.679 27.7967 101.682 27.7883 101.685 27.7813L76.2668 32.4855ZM100.138 21.66C100.26 21.6793 100.383 21.675 100.503 21.648C100.099 21.7897 99.7149 21.9228 99.4421 21.9999L99.4387 22.0009C98.7604 22.2014 98.0556 22.2952 97.3495 22.2795C97.473 21.8959 97.7007 21.5534 98.0082 21.2907L98.0123 21.2872C98.4809 20.872 98.8442 20.7383 99.1706 20.7788C99.2361 20.7879 99.2895 20.8029 99.3231 20.8177C99.3237 20.818 99.3243 20.8182 99.3249 20.8185L99.3319 20.8343L99.3783 20.8767C99.4143 20.9095 99.4415 20.9506 99.4576 20.9964C99.4845 21.1605 99.562 21.3124 99.6794 21.4308C99.803 21.5554 99.9641 21.6359 100.138 21.66ZM103.572 21.9607C103.573 21.9605 103.573 21.9603 103.573 21.96L103.571 21.963C103.571 21.9629 103.571 21.9622 103.572 21.9607ZM93.488 34.8982L93.4844 34.9007C90.3399 37.1886 86.958 38.1156 83.4299 37.6652L83.4268 37.6648C82.0583 37.5045 80.7416 37.0462 79.5693 36.3223C78.8138 35.8408 78.2993 35.3116 78.0089 34.7335C77.7208 34.1599 77.6413 33.5145 77.7959 32.7732C77.9491 32.0518 78.5958 31.5672 79.5422 31.2366C80.4778 30.9097 81.6103 30.7684 82.5666 30.6714C83.9853 30.5291 85.4483 30.4497 86.9299 30.3693L86.9448 30.3685C88.4291 30.288 89.9315 30.2062 91.412 30.0584C94.0859 29.7915 96.7106 29.3076 99.0697 28.2106C97.8279 30.8851 95.9051 33.1927 93.488 34.8982ZM105.793 18.4551C105.511 18.7524 105.213 19.0343 104.902 19.2998C105.111 18.9187 105.338 18.5475 105.582 18.1874L105.586 18.1807C105.928 17.6451 106.226 17.271 106.488 17.0413C106.657 16.8928 106.794 16.8188 106.905 16.7895C106.778 17.2265 106.405 17.8001 105.793 18.4551Z" fill="#397B5C"/>
<path d="M102.389 25.824C103.599 25.3024 105.231 24.3263 106.917 23.2575C107.613 22.8158 108.318 22.3591 109.001 21.9164C110.239 21.1144 111.405 20.3585 112.324 19.8215L112.331 19.8176L112.337 19.814L112.531 19.7138L112.616 19.6697L112.711 19.6833L112.825 19.6994C112.825 19.6995 112.826 19.6996 112.827 19.6997C113.018 19.7249 113.217 19.7846 113.358 19.9249C113.516 20.0815 113.552 20.2859 113.513 20.4818C113.502 20.5523 113.475 20.6193 113.432 20.677M102.389 25.824L113.19 20.4993M102.389 25.824C102.757 24.7362 103.079 23.6328 103.353 22.5171L103.355 22.5088L103.356 22.5005C103.371 22.4193 103.401 22.3415 103.443 22.2705C103.508 22.1699 103.556 22.0598 103.587 21.9442C103.592 21.9384 103.599 21.9311 103.608 21.9224C103.652 21.8791 103.722 21.8182 103.823 21.7376C104.024 21.5782 104.324 21.36 104.728 21.0786C105.105 20.8386 105.462 20.5662 105.792 20.2645C106.126 20.0114 106.442 19.7345 106.736 19.4362C107.184 18.9847 107.567 18.5615 107.884 18.1732C108.261 17.7436 108.507 17.2144 108.591 16.6489C108.624 16.5133 108.628 16.3718 108.6 16.2347M102.389 25.824L79.6303 30.1591C82.5316 29.6635 85.4562 29.3156 88.3928 29.1169L88.3673 28.8179C88.3682 28.8179 88.369 28.8178 88.3699 28.8177C88.8289 28.7786 89.2905 28.7429 89.7529 28.7072C92.1942 28.5187 94.658 28.3284 96.8833 27.6152C96.956 27.5917 97.0905 27.5525 97.2587 27.5033C97.3357 27.4808 97.4199 27.4562 97.5084 27.4301C97.7956 27.3455 98.1392 27.2423 98.4714 27.1338C98.8054 27.0248 99.1202 26.9129 99.3525 26.8114C99.4699 26.7601 99.5558 26.7159 99.6102 26.6808C99.615 26.6777 99.6194 26.6748 99.6233 26.6721C99.7943 25.9393 100.006 25.2165 100.256 24.507L100.257 24.5042L100.668 23.3784L100.67 23.3751L100.834 22.9391C100.276 23.1218 99.7055 23.265 99.1266 23.3676C98.3866 23.5412 97.6253 23.606 96.8665 23.5602L96.8565 23.5596L96.8466 23.5583C96.4505 23.5077 96.1067 23.3855 95.878 23.1544C95.6334 22.9072 95.564 22.5809 95.6354 22.2347L95.6373 22.2255L95.6398 22.2165C95.7201 21.9214 95.8438 21.6399 96.0069 21.3811C96.2121 21.0307 96.4692 20.7134 96.7695 20.4399L96.7716 20.438C97.5967 19.7007 98.4354 19.3475 99.393 19.4886C99.8364 19.5316 100.258 19.7008 100.608 19.9762C100.787 20.1105 100.924 20.2929 101.003 20.502C101.081 20.7104 101.099 20.9368 101.055 21.1549C101.035 21.269 100.98 21.3744 100.899 21.4571C100.857 21.4994 100.81 21.5347 100.757 21.562L101.171 21.4266L101.448 21.3294C101.587 20.7238 101.791 20.1349 102.058 19.5733C102.387 18.8479 102.792 18.1589 103.264 17.5174L103.269 17.5111C104.503 15.9247 105.953 15.1802 107.547 15.3926C107.879 15.4219 108.186 15.5769 108.407 15.826L108.413 15.8331L108.419 15.8407C108.509 15.9562 108.571 16.0911 108.6 16.2347M113.432 20.677L113.19 20.4993M113.432 20.677C113.39 20.7338 113.336 20.7795 113.273 20.8106M113.19 20.4993C113.176 20.5192 113.156 20.5349 113.133 20.5448M108.6 16.2347L108.306 16.2939M113.273 20.8106L113.284 20.8044L113.279 20.7966C113.28 20.7956 113.281 20.7947 113.282 20.7937L113.271 20.7828L113.133 20.5448M113.273 20.8106C113.268 20.8133 113.262 20.8158 113.257 20.8182C113.255 20.8197 113.254 20.8212 113.252 20.8227L113.22 20.8412L113.07 20.5816L113.211 20.7222M113.273 20.8106L113.211 20.7222M113.133 20.5448L113.211 20.7222M107.136 24.4581C107.137 24.4574 107.138 24.4566 107.14 24.4558L106.973 24.2061L107.133 24.4604C107.134 24.4596 107.135 24.4589 107.136 24.4581ZM76.2668 32.4855C75.9346 34.0521 76.5385 35.442 77.8956 36.7089L77.9018 36.7147L77.9083 36.7201C79.3878 37.9531 81.2028 38.7142 83.1191 38.9055C87.1465 39.4659 91.24 38.5385 94.6326 36.297C97.4331 34.5164 99.6813 31.99 101.124 29.0018C101.217 28.8462 101.306 28.691 101.394 28.538L101.422 28.4886L101.431 28.4323C101.443 28.3454 101.474 28.2622 101.521 28.188L101.535 28.1666L101.544 28.1432C101.584 28.0486 101.619 27.9537 101.646 27.8842C101.658 27.8521 101.668 27.8255 101.675 27.8067C101.679 27.7967 101.682 27.7883 101.685 27.7813L76.2668 32.4855ZM100.138 21.66C100.26 21.6793 100.383 21.675 100.503 21.648C100.099 21.7897 99.7149 21.9228 99.4421 21.9999L99.4387 22.0009C98.7604 22.2014 98.0556 22.2952 97.3495 22.2795C97.473 21.8959 97.7007 21.5534 98.0082 21.2907L98.0123 21.2872C98.4809 20.872 98.8442 20.7383 99.1706 20.7788C99.2361 20.7879 99.2895 20.8029 99.3231 20.8177C99.3237 20.818 99.3243 20.8182 99.3249 20.8185L99.3319 20.8343L99.3783 20.8767C99.4143 20.9095 99.4415 20.9506 99.4576 20.9964C99.4845 21.1605 99.562 21.3124 99.6794 21.4308C99.803 21.5554 99.9641 21.6359 100.138 21.66ZM103.572 21.9607C103.573 21.9605 103.573 21.9603 103.573 21.96L103.571 21.963C103.571 21.9629 103.571 21.9622 103.572 21.9607ZM93.488 34.8982L93.4844 34.9007C90.3399 37.1886 86.958 38.1156 83.4299 37.6652L83.4268 37.6648C82.0583 37.5045 80.7416 37.0462 79.5693 36.3223C78.8138 35.8408 78.2993 35.3116 78.0089 34.7335C77.7208 34.1599 77.6413 33.5145 77.7959 32.7732C77.9491 32.0518 78.5958 31.5672 79.5422 31.2366C80.4778 30.9097 81.6103 30.7684 82.5666 30.6714C83.9853 30.5291 85.4483 30.4497 86.9299 30.3693L86.9448 30.3685C88.4291 30.288 89.9315 30.2062 91.412 30.0584C94.0859 29.7915 96.7106 29.3076 99.0697 28.2106C97.8279 30.8851 95.9051 33.1927 93.488 34.8982ZM105.793 18.4551C105.511 18.7524 105.213 19.0343 104.902 19.2998C105.111 18.9187 105.338 18.5475 105.582 18.1874L105.586 18.1807C105.928 17.6451 106.226 17.271 106.488 17.0413C106.657 16.8928 106.794 16.8188 106.905 16.7895C106.778 17.2265 106.405 17.8001 105.793 18.4551Z" stroke="#397B5C" stroke-width="0.6"/>
<path d="M37.8392 47.2931H36.5331C36.4382 46.3867 36.2966 45.4857 36.1088 44.5939C35.9219 45.061 35.7112 45.5181 35.4774 45.9636C35.3136 46.307 35.1319 46.6415 34.9329 46.9658L34.7358 47.2998H33.4764C33.2965 45.9975 33.0082 44.7124 32.6145 43.4581C32.2003 42.0851 31.8094 41.2466 31.452 40.9526C31.8937 40.8249 32.3518 40.763 32.8116 40.7689C33.4196 40.7689 33.9006 41.1932 34.238 42.0317C34.4303 42.516 34.5507 43.0258 34.5955 43.545L34.7692 44.8177H34.8561C35.3672 43.859 35.6311 43.1742 35.6611 42.7733C35.5764 42.1882 35.3606 41.6297 35.0298 41.1397C35.3958 40.9769 35.796 40.9058 36.1956 40.9326C36.3351 40.9226 36.4752 40.9404 36.6077 40.9852C36.7402 41.0299 36.8625 41.1006 36.9673 41.1932C37.065 41.2814 37.1565 41.3763 37.2413 41.4771C37.4039 41.7249 37.5173 42.0016 37.5753 42.2922C37.6281 42.4546 37.6607 42.6229 37.6722 42.7933C37.7056 42.9904 37.729 43.1541 37.739 43.2944C37.7591 43.5015 37.7724 43.6752 37.7824 43.8289C37.7925 43.9826 37.7824 44.0995 37.7824 44.3267C37.791 44.4902 37.791 44.6542 37.7824 44.8177H37.8693C38.0826 44.3976 38.2614 43.9607 38.4038 43.5115C38.5592 43.0599 38.6404 42.5861 38.6443 42.1085C38.6855 41.6946 38.5658 41.2808 38.3103 40.9526C38.52 40.7993 38.7811 40.7334 39.0385 40.7689C39.3192 40.7567 39.5943 40.8496 39.8102 41.0295C39.9056 41.116 39.9805 41.2226 40.0296 41.3416C40.0788 41.4606 40.1008 41.5891 40.0941 41.7176C40.0845 42.1729 40.0034 42.6238 39.8536 43.0539C39.7069 43.5696 39.5181 44.0724 39.2891 44.5572C38.9191 45.367 38.5042 46.1555 38.0464 46.919L37.8392 47.2931Z" fill="#023832"/>
<path d="M41.6575 47.2932C41.6575 47.1629 41.6342 46.9758 41.6342 46.7253C41.6342 46.4747 41.6676 45.6396 41.7244 44.2131C41.7811 42.7867 41.8112 41.9382 41.8112 41.6776C41.8282 41.4472 41.7833 41.2165 41.6809 41.0095L41.6342 40.9326C42.3488 40.7985 43.0752 40.737 43.8022 40.7489C44.3888 40.7223 44.9765 40.766 45.5527 40.8792C45.6899 40.9097 45.8108 40.9903 45.8917 41.1052C45.9727 41.2201 46.0078 41.3611 45.9903 41.5006C45.9871 41.7032 45.9085 41.8973 45.7698 42.0451C45.6459 42.1886 45.471 42.2785 45.2821 42.2956C45.2821 42.152 45.065 42.0785 44.614 42.0785L43.702 42.1219V42.5996C43.702 42.8602 43.692 43.0673 43.6719 43.221C43.9972 43.1893 44.3239 43.1748 44.6507 43.1775C44.821 43.1825 44.9898 43.2118 45.1518 43.2644C45.2685 43.2826 45.3738 43.3445 45.4464 43.4376C45.519 43.5307 45.5534 43.6479 45.5427 43.7655C45.5427 44.1563 45.4224 44.3935 45.2086 44.4703L45.0884 44.5138C44.8871 44.4524 44.6774 44.4231 44.467 44.4269L43.6853 44.4603L43.6419 45.7665H44.9247C45.1442 45.7817 45.3642 45.7439 45.5661 45.6563L45.6329 45.6262C45.782 45.7014 45.9091 45.8138 46.0022 45.9525C46.0952 46.0912 46.151 46.2515 46.164 46.4179C46.164 46.9959 45.7966 47.2798 45.0549 47.2798L41.6575 47.2932Z" fill="#023832"/>
<path d="M47.7174 47.2931C47.7174 47.1628 47.6974 46.9757 47.6974 46.7252C47.6974 46.4747 47.7275 45.6395 47.7842 44.2131C47.841 42.7866 47.8711 41.9381 47.8711 41.6775C47.8881 41.4472 47.8431 41.2165 47.7408 41.0094L47.6974 40.9326C48.0921 40.795 48.5091 40.7326 48.9267 40.7488C49.1762 40.7346 49.4239 40.7989 49.635 40.9326C49.697 40.9934 49.7419 41.0694 49.7652 41.1531C49.816 41.3184 49.8375 41.4914 49.8287 41.6642C49.7519 43.0004 49.7084 44.3734 49.6884 45.7664H50.9712C51.1918 45.7813 51.4128 45.7435 51.6159 45.6562L51.6794 45.6261C51.8293 45.7007 51.9574 45.8128 52.051 45.9515C52.1447 46.0903 52.2008 46.251 52.2139 46.4179C52.2139 46.9958 51.8431 47.2798 51.1015 47.2798L47.7174 47.2931Z" fill="#023832"/>
<path d="M53.637 47.2931C53.637 47.1628 53.6169 46.9757 53.6169 46.7252C53.6169 46.4747 53.647 45.6395 53.7038 44.2131C53.7606 42.7866 53.7907 41.9381 53.7907 41.6775C53.8077 41.4472 53.7627 41.2165 53.6604 41.0094L53.6169 40.9326C54.0116 40.795 54.4286 40.7326 54.8463 40.7488C55.0958 40.7346 55.3434 40.7989 55.5545 40.9326C55.6165 40.9934 55.6615 41.0694 55.6848 41.1531C55.7356 41.3184 55.7571 41.4914 55.7483 41.6642C55.6714 43.0004 55.628 44.3734 55.608 45.7664H56.8908C57.1103 45.7816 57.3303 45.7438 57.5322 45.6562L57.599 45.6261C57.7485 45.7012 57.8762 45.8135 57.9698 45.9521C58.0634 46.0908 58.1197 46.2511 58.1335 46.4179C58.1335 46.9958 57.7627 47.2798 57.021 47.2798L53.637 47.2931Z" fill="#023832"/>
<path d="M62.7669 42.6029C63.0879 43.2005 63.3433 43.8311 63.5286 44.4836H63.6388V43.3846C63.6388 42.0016 63.5085 41.1965 63.248 40.9459C63.5252 40.8109 63.8319 40.7478 64.1399 40.7622C64.2538 40.7495 64.369 40.7638 64.4764 40.8038C64.5837 40.8439 64.6802 40.9086 64.7579 40.9927C64.8783 41.2119 64.9317 41.4616 64.9116 41.7109C64.9116 42.6797 64.8136 44.4491 64.6176 47.0192L64.5942 47.2931H62.9072C62.6343 46.4033 62.2994 45.5338 61.905 44.6908C61.633 43.9788 61.2219 43.3281 60.6957 42.7766H60.6089C60.6289 43.0472 60.6423 43.5382 60.6423 44.2465C60.6423 45.0382 60.6423 45.5827 60.6423 45.9168C60.6423 46.2508 60.6423 46.7018 60.6423 47.2898H59.306C59.306 47.0726 59.2827 46.8855 59.2827 46.7218C59.3929 43.5249 59.4464 41.8379 59.4464 41.6742C59.4631 41.4438 59.4181 41.2132 59.3161 41.006L59.2726 40.9392C59.5643 40.7905 59.8919 40.7268 60.218 40.7555C60.5873 40.7544 60.9521 40.8361 61.2857 40.9945C61.6192 41.1529 61.913 41.384 62.1456 41.6708C62.3915 41.9538 62.6003 42.267 62.7669 42.6029Z" fill="#023832"/>
<path d="M66.5418 47.2932C66.5418 47.1629 66.5217 46.9758 66.5217 46.7253C66.5217 46.4747 66.5551 45.6396 66.6086 44.2131C66.662 42.7867 66.6954 41.9382 66.6954 41.6776C66.7125 41.4472 66.6675 41.2165 66.5652 41.0095L66.5217 40.9326C67.2352 40.7984 67.9605 40.7368 68.6865 40.7489C69.2731 40.7223 69.8607 40.766 70.4369 40.8792C70.5741 40.9097 70.695 40.9903 70.776 41.1052C70.8569 41.2201 70.892 41.3611 70.8746 41.5006C70.871 41.7025 70.7937 41.8961 70.6574 42.0451C70.5316 42.188 70.356 42.2776 70.1663 42.2956C70.1663 42.152 69.9492 42.0785 69.5149 42.0785L68.5996 42.1219V42.5996C68.5996 42.8602 68.5762 43.0673 68.5662 43.221C68.8915 43.1893 69.2182 43.1748 69.545 43.1775C69.7153 43.1823 69.8841 43.2115 70.0461 43.2644C70.1627 43.2826 70.2681 43.3445 70.3407 43.4376C70.4133 43.5307 70.4477 43.6479 70.4369 43.7655C70.4369 44.1563 70.3167 44.3935 70.1029 44.4703L69.9826 44.5138C69.7813 44.4524 69.5716 44.4231 69.3613 44.4269L68.5796 44.4603L68.5361 45.7665H69.8189C70.0385 45.7817 70.2584 45.7439 70.4603 45.6563L70.5271 45.6262C70.677 45.7007 70.8051 45.8129 70.8987 45.9516C70.9924 46.0904 71.0485 46.251 71.0616 46.4179C71.0616 46.9959 70.6908 47.2798 69.9492 47.2798L66.5418 47.2932Z" fill="#023832"/>
<path d="M77.5325 45.2788C77.5325 46.7253 76.5637 47.4568 74.6395 47.4568C74.0305 47.4638 73.4326 47.2932 72.9191 46.9658C72.4079 46.6317 72.1474 46.2476 72.1474 45.8433C72.145 45.7288 72.1691 45.6153 72.2178 45.5115C72.2664 45.4078 72.3384 45.3167 72.428 45.2454C72.6306 45.0985 72.8759 45.0222 73.1262 45.0282L73.1696 45.0717C73.3836 45.3177 73.6451 45.5179 73.9385 45.6603C74.2319 45.8027 74.551 45.8842 74.8767 45.9001C75.0483 45.9055 75.2171 45.8551 75.3577 45.7565C75.4198 45.7195 75.4715 45.6672 75.5077 45.6047C75.544 45.5421 75.5636 45.4713 75.5648 45.399C75.5648 45.2454 75.4112 45.065 75.1172 44.9213L74.1384 44.4637C73.1785 43.9826 72.6997 43.3401 72.7019 42.5361C72.7029 42.3 72.7561 42.067 72.8578 41.8539C72.9594 41.6408 73.107 41.4528 73.2899 41.3034C73.6907 40.9426 74.2921 40.7689 75.1272 40.7689C75.573 40.7655 76.0171 40.824 76.4468 40.9426C77.0013 41.0863 77.2819 41.3569 77.2819 41.7377C77.2903 41.9239 77.2283 42.1063 77.1082 42.2488C77.0269 42.3594 76.9082 42.4366 76.7741 42.466L76.5904 42.4994C76.1942 42.1641 75.6813 41.9995 75.164 42.0417C74.6963 42.0417 74.4557 42.1954 74.4557 42.4994C74.4557 42.7399 74.8165 42.9905 75.5448 43.251C76.871 43.6786 77.5458 44.3534 77.5325 45.2788Z" fill="#023832"/>
<path d="M83.9531 45.2788C83.9531 46.7253 82.9843 47.4568 81.0568 47.4568C80.4489 47.4634 79.8522 47.2927 79.3397 46.9658C78.8286 46.6317 78.568 46.2476 78.568 45.8433C78.5657 45.7288 78.5898 45.6152 78.6384 45.5115C78.6871 45.4078 78.759 45.3167 78.8486 45.2454C79.0513 45.0984 79.2966 45.0222 79.5468 45.0282L79.5903 45.0717C79.8043 45.3177 80.0658 45.5179 80.3591 45.6603C80.6525 45.8027 80.9716 45.8842 81.2973 45.9001C81.469 45.9054 81.6377 45.8551 81.7784 45.7565C81.8401 45.7193 81.8912 45.6669 81.9269 45.6043C81.9626 45.5418 81.9816 45.4711 81.9821 45.399C81.9821 45.2454 81.8318 45.065 81.5378 44.9213L80.559 44.4637C79.5992 43.9826 79.1203 43.3401 79.1226 42.5361C79.1226 42.2992 79.1751 42.0652 79.2761 41.851C79.3772 41.6367 79.5244 41.4474 79.7072 41.2967C80.1114 40.9359 80.7094 40.7622 81.5479 40.7622C81.9925 40.7586 82.4356 40.8171 82.8641 40.936C83.4186 41.0796 83.7026 41.3502 83.7026 41.731C83.7109 41.9172 83.6489 42.0996 83.5289 42.2421C83.4476 42.3527 83.3288 42.4299 83.1948 42.4593L83.0077 42.4927C82.8123 42.3264 82.586 42.2004 82.3418 42.1219C82.0976 42.0433 81.8403 42.0138 81.5846 42.035C81.1136 42.035 80.8764 42.1887 80.8764 42.4927C80.8764 42.7332 81.2338 42.9838 81.9654 43.2443C83.2883 43.6786 83.9631 44.3534 83.9531 45.2788Z" fill="#023832"/>
<path d="M88.6968 47.2932C88.6968 47.1629 88.6734 46.9758 88.6734 46.7253C88.6734 45.9436 88.7324 44.4492 88.8505 42.2422L88.5765 42.2656C88.4652 42.2716 88.3537 42.2716 88.2425 42.2656C87.6011 42.2656 87.2737 41.9716 87.2737 41.3836C87.2866 41.1752 87.3801 40.98 87.5342 40.8391C87.747 40.9234 87.9735 40.9676 88.2024 40.9694C88.3761 40.9694 88.8705 40.9694 89.6823 40.936C90.3237 40.9059 90.9116 40.8926 91.4227 40.8926C92.1176 40.8926 92.4684 41.1765 92.4684 41.7444C92.4734 41.8417 92.4586 41.939 92.4247 42.0304C92.3908 42.1217 92.3386 42.2051 92.2713 42.2756L92.2078 42.3524C91.9516 42.2454 91.6769 42.1898 91.3993 42.1887H90.8014C90.7245 43.702 90.6945 45.1184 90.6945 46.4346C90.6945 46.8155 90.6945 47.1028 90.7145 47.2731L88.6968 47.2932Z" fill="#023832"/>
<path d="M99.2632 44.006C99.3008 44.8653 99.0307 45.7098 98.5015 46.3879C98.2111 46.7405 97.8425 47.0207 97.4251 47.2062C97.0076 47.3918 96.5526 47.4776 96.0963 47.4569C95.7125 47.4817 95.3281 47.4212 94.9705 47.2797C94.613 47.1381 94.2912 46.9191 94.0284 46.6384C93.5374 46.0839 93.3002 45.2788 93.3002 44.2231C93.3002 43.6517 93.4067 43.0853 93.6142 42.5528C93.8351 42.0408 94.1979 41.6026 94.6598 41.2901C95.1871 40.9472 95.8047 40.7692 96.4337 40.779C96.8188 40.7585 97.2036 40.823 97.561 40.968C97.9183 41.1129 98.2394 41.3346 98.5015 41.6175C99.0126 42.1553 99.2632 42.9738 99.2632 44.006ZM97.369 43.9192C97.369 42.5595 97.035 41.8714 96.4003 41.8714C96.2278 41.8757 96.0607 41.9323 95.9211 42.0338C95.7815 42.1352 95.676 42.2766 95.6186 42.4393C95.398 42.9674 95.2976 43.5379 95.3246 44.1096C95.3246 45.5227 95.6386 46.2309 96.28 46.2309C96.4625 46.225 96.6385 46.1619 96.783 46.0503C96.9275 45.9388 97.0332 45.7845 97.0851 45.6095C97.2951 45.0716 97.3918 44.4961 97.369 43.9192Z" fill="#023832"/>
<path d="M104.291 40.9693C104.686 40.8324 105.102 40.769 105.52 40.7822C106.118 40.7822 106.412 41.0328 106.412 41.5439L106.359 43.3178C106.335 44.1128 106.315 44.7977 106.282 45.3556C106.182 46.7586 105.216 47.4668 103.375 47.4668C102.805 47.4734 102.245 47.3219 101.755 47.0292C101.47 46.8592 101.238 46.6125 101.085 46.3173C100.933 46.0221 100.867 45.69 100.893 45.3589L100.917 43.8656C100.937 42.8968 100.95 42.1686 100.95 41.7009C100.962 41.4705 100.917 41.2407 100.817 41.0328L100.773 40.9693C100.773 40.9459 100.883 40.9125 101.107 40.8691C101.402 40.8131 101.702 40.784 102.002 40.7822C102.6 40.7822 102.904 41.0328 102.904 41.5439L102.861 45.1919C102.861 45.9001 103.088 46.2475 103.529 46.2475C103.646 46.2614 103.764 46.2468 103.874 46.2049C103.984 46.163 104.083 46.0951 104.161 46.007C104.309 45.7575 104.388 45.4724 104.388 45.1818C104.43 44.6674 104.452 43.506 104.455 41.6976C104.466 41.4676 104.421 41.2382 104.324 41.0294L104.291 40.9693Z" fill="#023832"/>
<path d="M108.346 47.2931C108.346 47.1628 108.326 46.9758 108.326 46.7252C108.326 46.1272 108.346 45.2587 108.403 44.1362C108.457 42.6664 108.49 41.8512 108.49 41.7109C108.507 41.4741 108.462 41.2371 108.36 41.0228L108.316 40.9459C108.523 40.829 109.228 40.7622 110.438 40.7622C111.063 40.7645 111.681 40.8941 112.255 41.143C112.558 41.2426 112.821 41.4369 113.005 41.6974C113.189 41.9579 113.284 42.2706 113.277 42.5895C113.306 42.9652 113.223 43.341 113.039 43.6701C112.856 43.9992 112.579 44.267 112.245 44.4402C112.468 45.1484 112.762 45.5939 113.127 45.7765C113.426 45.9302 113.759 46.0082 114.096 46.0036C114.19 46.1133 114.244 46.2529 114.246 46.3978C114.25 46.5306 114.227 46.6628 114.178 46.7864C114.129 46.9099 114.056 47.0221 113.962 47.1161C113.843 47.2313 113.701 47.3205 113.546 47.3781C113.391 47.4356 113.225 47.4601 113.06 47.4501C112.524 47.4736 112 47.2947 111.59 46.949C111.176 46.5593 110.861 45.8845 110.645 44.9246H110.341C110.317 45.2954 110.307 45.7932 110.307 46.4246C110.307 46.7586 110.307 47.0559 110.327 47.2864L108.346 47.2931ZM110.351 43.7788C111.142 43.7788 111.537 43.3946 111.537 42.6463C111.537 42.1786 111.166 41.9381 110.438 41.9381L110.351 43.7788Z" fill="#023832"/>
<path d="M115.355 47.2931C115.355 47.1628 115.335 46.9758 115.335 46.7252L115.388 44.2131C115.432 42.9603 115.455 42.1118 115.455 41.6775C115.472 41.4469 115.425 41.2161 115.322 41.0094L115.278 40.9326C115.674 40.7949 116.092 40.7326 116.511 40.7489C116.945 40.7489 117.206 40.8457 117.303 41.0528C117.387 41.2451 117.425 41.4546 117.413 41.6642L117.359 44.036C117.326 45.0917 117.316 45.8633 117.316 46.3744C117.315 46.6804 117.333 46.986 117.369 47.2898L115.355 47.2931Z" fill="#023832"/>
<path d="M124.268 45.2788C124.268 46.7253 123.299 47.4569 121.375 47.4569C120.766 47.4639 120.168 47.2932 119.654 46.9658C119.143 46.6317 118.883 46.2476 118.883 45.8434C118.88 45.7288 118.904 45.6153 118.953 45.5116C119.002 45.4079 119.074 45.3168 119.163 45.2454C119.366 45.0985 119.611 45.0222 119.861 45.0282L119.905 45.0717C120.119 45.3177 120.38 45.5179 120.674 45.6603C120.967 45.8027 121.286 45.8843 121.612 45.9001C121.784 45.9055 121.952 45.8551 122.093 45.7565C122.155 45.7193 122.206 45.667 122.242 45.6044C122.277 45.5418 122.296 45.4711 122.297 45.3991C122.297 45.2454 122.146 45.065 121.852 44.9213L120.86 44.4637C119.9 43.9826 119.422 43.3401 119.424 42.5361C119.426 42.2989 119.482 42.0653 119.586 41.8521C119.69 41.6389 119.84 41.4515 120.025 41.3034C120.426 40.9427 121.027 40.769 121.863 40.769C122.307 40.7653 122.75 40.8238 123.179 40.9427C123.733 41.0863 124.017 41.3569 124.017 41.7377C124.026 41.9239 123.964 42.1064 123.843 42.2489C123.762 42.3594 123.643 42.4366 123.509 42.466L123.322 42.4994C123.127 42.3331 122.901 42.2071 122.656 42.1286C122.412 42.0501 122.155 42.0205 121.899 42.0417C121.432 42.0417 121.191 42.1954 121.191 42.4994C121.191 42.7399 121.548 42.9905 122.28 43.251C123.603 43.6786 124.278 44.3534 124.268 45.2788Z" fill="#023832"/>
<path d="M128.915 42.9403C129.049 43.3527 129.15 43.7748 129.219 44.203H129.305L130.067 41.6976C130.231 41.0796 130.765 40.7622 131.667 40.7622C131.944 40.7612 132.219 40.8052 132.482 40.8925L132.593 40.9459V41.4905C132.593 41.9715 132.581 42.7877 132.559 43.9391L132.539 46.3344C132.539 46.7252 132.539 47.0426 132.559 47.2931H130.555L130.535 46.7252C130.514 45.4356 130.572 44.1459 130.708 42.8635H130.612L129.275 47.2931H128.21C128.099 46.6951 127.916 45.9201 127.645 44.9547C127.483 44.2148 127.212 43.5032 126.84 42.8434H126.753C126.773 43.124 126.783 43.5917 126.783 44.2365C126.783 44.9981 126.783 45.5426 126.783 45.8567C126.783 46.1707 126.783 46.6517 126.783 47.2831H125.447C125.438 47.1719 125.438 47.0602 125.447 46.949C125.447 46.2108 125.467 45.252 125.524 44.0861C125.577 42.5628 125.611 41.7477 125.611 41.6608C125.611 41.2032 125.554 40.9626 125.437 40.9292C125.734 40.8069 126.051 40.7445 126.372 40.7455C126.748 40.728 127.121 40.8043 127.46 40.9676C127.798 41.1309 128.09 41.3761 128.31 41.6809C128.581 42.0637 128.785 42.4895 128.915 42.9403Z" fill="#023832"/>
<path d="M142.123 45.2788C142.123 46.7253 141.155 47.4569 139.23 47.4569C138.621 47.4639 138.024 47.2932 137.51 46.9658C136.999 46.6317 136.738 46.2476 136.738 45.8434C136.736 45.7288 136.76 45.6153 136.809 45.5116C136.857 45.4079 136.929 45.3168 137.019 45.2454C137.222 45.0985 137.467 45.0222 137.717 45.0282L137.76 45.0717C137.974 45.3177 138.236 45.5179 138.529 45.6603C138.823 45.8027 139.142 45.8843 139.468 45.9001C139.639 45.9055 139.808 45.8551 139.949 45.7565C140.01 45.7193 140.061 45.667 140.097 45.6044C140.133 45.5418 140.152 45.4711 140.152 45.3991C140.152 45.2454 140.002 45.065 139.708 44.9213L138.729 44.4637C137.769 43.9826 137.291 43.3401 137.293 42.5361C137.296 42.2987 137.352 42.0649 137.456 41.8516C137.561 41.6384 137.711 41.4512 137.897 41.3034C138.298 40.9427 138.9 40.769 139.735 40.769C140.179 40.7653 140.622 40.8238 141.051 40.9427C141.609 41.0863 141.889 41.3569 141.889 41.7377C141.898 41.9239 141.836 42.1064 141.716 42.2489C141.635 42.3594 141.516 42.4366 141.382 42.466L141.198 42.4994C140.802 42.1641 140.289 41.9995 139.772 42.0417C139.304 42.0417 139.063 42.1954 139.063 42.4994C139.063 42.7399 139.421 42.9905 140.152 43.251C141.462 43.6786 142.133 44.3534 142.123 45.2788Z" fill="#023832"/>
<path d="M143.613 47.2932C143.613 47.1629 143.593 46.9758 143.593 46.7253C143.593 46.4747 143.623 45.6396 143.68 44.2131C143.737 42.7867 143.767 41.9382 143.767 41.6776C143.784 41.4472 143.739 41.2165 143.637 41.0095L143.593 40.9326C144.307 40.7984 145.032 40.7368 145.758 40.7489C146.345 40.7223 146.932 40.766 147.508 40.8792C147.646 40.9097 147.767 40.9903 147.847 41.1052C147.928 41.2201 147.964 41.3611 147.946 41.5006C147.942 41.7025 147.865 41.8961 147.729 42.0451C147.608 42.1888 147.437 42.2818 147.251 42.3056C147.251 42.162 147.034 42.0885 146.583 42.0885L145.668 42.1319V42.6096C145.668 42.8702 145.644 43.0773 145.634 43.231C145.96 43.1993 146.286 43.1848 146.613 43.1876C146.783 43.1923 146.952 43.2216 147.114 43.2744C147.231 43.2926 147.336 43.3545 147.409 43.4476C147.481 43.5407 147.516 43.658 147.505 43.7755C147.505 44.1664 147.385 44.4035 147.171 44.4804L147.051 44.5238C146.849 44.4624 146.64 44.4331 146.429 44.4369L145.648 44.4703L145.581 45.7799H146.864C147.083 45.7951 147.303 45.7573 147.505 45.6696L147.572 45.6396C147.721 45.7146 147.849 45.8269 147.943 45.9655C148.036 46.1042 148.093 46.2646 148.106 46.4313C148.106 47.0092 147.736 47.2932 146.994 47.2932H143.613Z" fill="#023832"/>
<path d="M149.686 47.2931C149.686 47.1628 149.663 46.9758 149.663 46.7252C149.663 46.1272 149.686 45.2587 149.74 44.1362C149.793 42.6664 149.827 41.8512 149.827 41.7109C149.843 41.4741 149.799 41.2371 149.697 41.0228L149.653 40.9459C149.86 40.829 150.568 40.7622 151.774 40.7622C152.4 40.7645 153.018 40.8941 153.592 41.143C153.895 41.2421 154.158 41.4364 154.342 41.6969C154.527 41.9575 154.622 42.2705 154.614 42.5895C154.642 42.9652 154.56 43.341 154.376 43.6701C154.193 43.9992 153.916 44.267 153.582 44.4402C153.804 45.1484 154.098 45.5939 154.464 45.7765C154.763 45.9298 155.096 46.0078 155.432 46.0036C155.527 46.1133 155.58 46.2529 155.583 46.3978C155.587 46.5303 155.564 46.6622 155.516 46.7856C155.468 46.9091 155.395 47.0215 155.302 47.1161C155.183 47.2314 155.04 47.3207 154.884 47.3782C154.729 47.4357 154.563 47.4602 154.397 47.4501C153.862 47.4737 153.339 47.2948 152.93 46.949C152.516 46.5593 152.2 45.8845 151.981 44.9246H151.677C151.654 45.2954 151.644 45.7932 151.644 46.4246C151.644 46.7586 151.644 47.0559 151.667 47.2864L149.686 47.2931ZM151.691 43.7788C152.486 43.7788 152.877 43.3946 152.877 42.6463C152.877 42.1786 152.506 41.9381 151.778 41.9381L151.691 43.7788Z" fill="#023832"/>
<path d="M158.215 47.2931C158.024 45.9259 157.715 44.5779 157.29 43.2643C156.889 41.9815 156.519 41.2088 156.181 40.946C156.628 40.8218 157.09 40.76 157.554 40.7622C157.749 40.7573 157.943 40.8004 158.117 40.8877C158.292 40.9751 158.443 41.1041 158.556 41.2633C158.827 41.6125 159.032 42.0074 159.164 42.4292L159.351 43.0973C159.394 43.261 159.434 43.5015 159.481 43.8055L159.622 44.8712H159.708C159.921 44.4573 160.082 44.0186 160.186 43.565C160.323 43.0944 160.4 42.6084 160.417 42.1185C160.455 41.7022 160.329 41.2875 160.066 40.9627C160.277 40.8101 160.539 40.7443 160.797 40.7789C161.078 40.7667 161.353 40.8597 161.569 41.0395C161.664 41.1266 161.738 41.2333 161.787 41.3522C161.836 41.471 161.859 41.5992 161.853 41.7277C161.805 42.5162 161.617 43.2899 161.298 44.0126C160.989 44.8177 160.622 45.5993 160.199 46.3511L159.642 47.3098L158.215 47.2931Z" fill="#023832"/>
<path d="M163.396 47.2931C163.396 47.1628 163.373 46.9757 163.373 46.7252L163.43 44.2131C163.473 42.9603 163.493 42.1118 163.493 41.6775C163.51 41.4472 163.465 41.2165 163.363 41.0094L163.32 40.9326C163.714 40.795 164.131 40.7326 164.549 40.7488C164.983 40.7488 165.247 40.8457 165.344 41.0528C165.427 41.2454 165.464 41.4548 165.451 41.6642L165.397 44.036C165.364 45.0916 165.354 45.8633 165.354 46.3744C165.355 46.6803 165.373 46.9859 165.407 47.2898L163.396 47.2931Z" fill="#023832"/>
<path d="M167.031 44.2231C167.031 43.124 167.312 42.2755 167.89 41.6775C168.183 41.3737 168.537 41.1351 168.929 40.9774C169.321 40.8197 169.742 40.7464 170.165 40.7622C170.658 40.7375 171.15 40.8423 171.591 41.0662C171.748 41.133 171.883 41.2434 171.979 41.3842C172.076 41.5251 172.13 41.6906 172.135 41.8613C172.135 42.3624 171.801 42.6129 171.133 42.6129C171.067 42.3986 170.934 42.2111 170.754 42.0777C170.574 41.9443 170.355 41.872 170.131 41.8713C169.997 41.8701 169.865 41.9037 169.748 41.9686C169.631 42.0336 169.533 42.1279 169.463 42.2421C169.151 42.8151 169.008 43.4652 169.052 44.1162C169.052 45.5293 169.366 46.2375 170.007 46.2375C170.562 46.2375 170.923 45.8667 171.076 45.1384C171.257 45.0727 171.448 45.0388 171.641 45.0382C171.743 45.0244 171.847 45.0344 171.944 45.0673C172.042 45.1002 172.13 45.1551 172.203 45.2279C172.276 45.3006 172.331 45.3892 172.364 45.4867C172.397 45.5841 172.406 45.6879 172.393 45.7899C172.395 46.0287 172.334 46.2639 172.217 46.4719C172.1 46.68 171.93 46.8537 171.725 46.9758C171.152 47.3221 170.489 47.4896 169.82 47.4568C169.441 47.4785 169.062 47.4178 168.708 47.2788C168.355 47.1398 168.036 46.9259 167.773 46.6517C167.295 46.0939 167.031 45.2787 167.031 44.2231Z" fill="#023832"/>
<path d="M173.742 47.2932C173.742 47.1629 173.722 46.9758 173.722 46.7253C173.722 46.4747 173.756 45.6396 173.809 44.2131C173.863 42.7867 173.896 41.9382 173.896 41.6776C173.913 41.4473 173.868 41.2166 173.766 41.0095L173.722 40.9327C174.436 40.7984 175.161 40.7368 175.887 40.7489C176.475 40.7225 177.063 40.7662 177.641 40.8792C177.777 40.9104 177.897 40.9913 177.978 41.1061C178.058 41.221 178.093 41.3616 178.075 41.5006C178.071 41.7025 177.994 41.8961 177.858 42.0451C177.733 42.1886 177.557 42.2783 177.367 42.2956C177.367 42.152 177.15 42.0785 176.715 42.0785L175.8 42.1219V42.5996C175.8 42.8602 175.777 43.0673 175.767 43.221C176.092 43.1894 176.419 43.1749 176.745 43.1775C176.916 43.182 177.085 43.2113 177.247 43.2644C177.363 43.2826 177.469 43.3445 177.541 43.4376C177.614 43.5307 177.648 43.6479 177.637 43.7655C177.637 44.1563 177.521 44.3935 177.303 44.4704L177.183 44.5138C176.983 44.4527 176.774 44.4234 176.565 44.4269L175.78 44.4603L175.737 45.7665H176.983C177.203 45.7813 177.424 45.7436 177.627 45.6563L177.691 45.6262C177.841 45.7008 177.969 45.8129 178.063 45.9516C178.156 46.0904 178.212 46.251 178.225 46.4179C178.225 46.9959 177.855 47.2798 177.113 47.2798L173.742 47.2932Z" fill="#023832"/>
<path d="M184.733 45.2787C184.733 46.7252 183.764 47.4568 181.84 47.4568C181.231 47.4638 180.633 47.2931 180.12 46.9657C179.608 46.6317 179.348 46.2475 179.348 45.8433C179.346 45.7287 179.37 45.6152 179.418 45.5115C179.467 45.4078 179.539 45.3167 179.628 45.2453C179.831 45.0988 180.077 45.0226 180.327 45.0282L180.37 45.0716C180.584 45.3173 180.846 45.5173 181.139 45.6597C181.433 45.802 181.752 45.8838 182.077 45.9001C182.249 45.9054 182.418 45.855 182.558 45.7564C182.62 45.7194 182.672 45.6672 182.708 45.6046C182.744 45.542 182.764 45.4713 182.765 45.399C182.765 45.2453 182.612 45.0649 182.318 44.9213L181.326 44.4636C180.366 43.9826 179.887 43.34 179.889 42.5361C179.892 42.299 179.948 42.0656 180.052 41.8525C180.156 41.6394 180.306 41.4519 180.49 41.3034C180.891 40.9426 181.493 40.7689 182.328 40.7689C182.779 40.7637 183.229 40.8221 183.664 40.9426C184.218 41.0862 184.499 41.3568 184.499 41.7376C184.507 41.9238 184.445 42.1063 184.325 42.2488C184.244 42.3593 184.125 42.4365 183.991 42.4659L183.808 42.4993C183.411 42.164 182.898 41.9994 182.381 42.0416C181.913 42.0416 181.673 42.1953 181.673 42.4993C181.673 42.7398 182.034 42.9904 182.762 43.251C184.072 43.6786 184.746 44.3534 184.733 45.2787Z" fill="#023832"/>
</g>
</g>
<defs>
<clipPath id="clip0_2_18">
<rect width="217" height="48" fill="white"/>
</clipPath>
</defs>
</svg>
