<svg width="0" height="0" class="hidden">
    <symbol fill="none" xmlns="http://www.w3.org/2000/svg" viewBox="0 0 13 13" id="people">
        <g id="Frame" clip-path="url(#clip0_1_393)">
        <path id="Vector" d="M1.5 11.5C1.5 10.4391 1.92143 9.42172 2.67157 8.67157C3.42172 7.92143 4.43913 7.5 5.5 7.5C6.56087 7.5 7.57828 7.92143 8.32843 8.67157C9.07857 9.42172 9.5 10.4391 9.5 11.5H8.5C8.5 10.7043 8.18393 9.94129 7.62132 9.37868C7.05871 8.81607 6.29565 8.5 5.5 8.5C4.70435 8.5 3.94129 8.81607 3.37868 9.37868C2.81607 9.94129 2.5 10.7043 2.5 11.5H1.5ZM5.5 7C3.8425 7 2.5 5.6575 2.5 4C2.5 2.3425 3.8425 1 5.5 1C7.1575 1 8.5 2.3425 8.5 4C8.5 5.6575 7.1575 7 5.5 7ZM5.5 6C6.605 6 7.5 5.105 7.5 4C7.5 2.895 6.605 2 5.5 2C4.395 2 3.5 2.895 3.5 4C3.5 5.105 4.395 6 5.5 6ZM9.642 7.8515C10.3447 8.16796 10.941 8.68062 11.3593 9.32785C11.7776 9.97509 12.0001 10.7294 12 11.5H11C11.0001 10.922 10.8333 10.3562 10.5195 9.87079C10.2058 9.38533 9.75854 9.00083 9.2315 8.7635L9.6415 7.8515H9.642ZM9.298 2.2065C9.80176 2.41415 10.2325 2.76677 10.5355 3.21961C10.8385 3.67246 11.0002 4.20512 11 4.75C11.0002 5.43617 10.7438 6.09761 10.2813 6.60441C9.8187 7.11121 9.18334 7.42673 8.5 7.489V6.4825C8.87047 6.42944 9.21418 6.25901 9.48065 5.99623C9.74713 5.73345 9.92235 5.39216 9.98058 5.02247C10.0388 4.65277 9.97699 4.27415 9.80419 3.94218C9.6314 3.6102 9.35672 3.34237 9.0205 3.178L9.298 2.2065Z" fill="#023F76"></path>
        </g>
        <defs>
        <clipPath id="clip0_1_393">
            <rect width="12" height="12" fill="white" transform="translate(0.5 0.5)"></rect>
        </clipPath>
        </defs>
    </symbol>
    <symbol fill="none" xmlns="http://www.w3.org/2000/svg" viewBox="0 0 24 24" id="location">
        <g id="carbon:location-current">
        <path id="Vector" d="M3 9.73725C2.99752 9.88928 3.04131 10.0385 3.12556 10.1651C3.20981 10.2916 3.33054 10.3896 3.47175 10.446L10.6725 13.3267L13.5532 20.5282C13.6089 20.6675 13.705 20.7869 13.8292 20.871C13.9534 20.9551 14.1 21.0001 14.25 21H14.262C14.4139 20.9976 14.5615 20.9491 14.6852 20.861C14.809 20.7729 14.9031 20.6493 14.955 20.5065L20.955 4.0065C21.0041 3.87227 21.0139 3.7268 20.9831 3.58722C20.9523 3.44764 20.8822 3.31977 20.7812 3.21866C20.6802 3.11755 20.5524 3.04741 20.4128 3.01651C20.2732 2.98561 20.1278 2.99524 19.9935 3.04425L3.4935 9.04425C3.35068 9.09632 3.22702 9.19053 3.1389 9.31441C3.05078 9.43828 3.00235 9.58599 3 9.738V9.73725Z" fill="#3D3E48"></path>
        </g>
    </symbol>
    <symbol fill="none" xmlns="http://www.w3.org/2000/svg" viewBox="0 0 24 24" id="dropdown">
        <path d="M12 22.75C6.07 22.75 1.25 17.93 1.25 12C1.25 6.07 6.07 1.25 12 1.25C17.93 1.25 22.75 6.07 22.75 12C22.75 17.93 17.93 22.75 12 22.75ZM12 2.75C6.9 2.75 2.75 6.9 2.75 12C2.75 17.1 6.9 21.25 12 21.25C17.1 21.25 21.25 17.1 21.25 12C21.25 6.9 17.1 2.75 12 2.75Z" fill="white"></path>
        <path d="M12.0002 15.0099C11.8102 15.0099 11.6202 14.9399 11.4702 14.7899L7.94016 11.2599C7.65016 10.9699 7.65016 10.4899 7.94016 10.1999C8.23016 9.90992 8.71016 9.90992 9.00016 10.1999L12.0002 13.1999L15.0002 10.1999C15.2902 9.90992 15.7702 9.90992 16.0602 10.1999C16.3502 10.4899 16.3502 10.9699 16.0602 11.2599L12.5302 14.7899C12.3802 14.9399 12.1902 15.0099 12.0002 15.0099Z" fill="white"></path>
    </symbol>
</svg>