<svg width="0" height="0" class="hidden">
    <symbol fill="none" xmlns="http://www.w3.org/2000/svg" viewBox="0 0 24 24" id="instagram">
        <path id="Vector" d="M11.9933 24C8.71516 24 8.32871 23.9827 7.04942 23.9268C6.0518 23.8941 5.06709 23.6916 4.1377 23.328C3.34238 23.0189 2.62012 22.5481 2.01677 21.9454C1.41343 21.3427 0.942188 20.6213 0.632982 19.827C0.282918 18.8956 0.0941049 17.9115 0.0746252 16.9168C-9.92859e-09 15.642 0 15.2242 0 11.976C0 8.69328 0.0173237 8.31005 0.0746252 7.03926C0.094531 6.04594 0.283337 5.06322 0.632982 4.13307C0.941833 3.33777 1.41339 2.61554 2.01754 2.01249C2.62168 1.40945 3.34514 0.938843 4.1417 0.630738C5.07271 0.27971 6.0571 0.0906776 7.05208 0.0718562C8.32471 -1.33843e-07 8.74314 0 11.9933 0C15.2982 0 15.678 0.0172986 16.9373 0.0718562C17.934 0.0904856 18.9228 0.279441 19.8556 0.630738C20.652 0.9392 21.3753 1.40993 21.9794 2.01293C22.5835 2.61593 23.0551 3.33798 23.3644 4.13307C23.7202 5.07784 23.9107 6.07585 23.9254 7.08317C24 8.35795 24 8.77445 24 12.0213C24 15.2681 23.9813 15.6939 23.9254 16.9541C23.9055 17.9497 23.7162 18.9347 23.3657 19.8669C23.0557 20.6618 22.5836 21.3836 21.9793 21.9865C21.3751 22.5894 20.6519 23.0603 19.8556 23.3693C18.9228 23.7179 17.938 23.9069 16.9426 23.9268C15.67 24 15.2529 24 11.9933 24ZM11.948 2.10645C8.68851 2.10645 8.35003 2.12242 7.0774 2.17964C6.31736 2.18956 5.56464 2.32954 4.85197 2.59348C4.33217 2.79244 3.85988 3.09795 3.46556 3.49033C3.07124 3.8827 2.76364 4.35324 2.56258 4.87159C2.29606 5.59015 2.15614 6.34997 2.14814 7.11643C2.07751 8.40585 2.07751 8.74385 2.07751 11.976C2.07751 15.1697 2.08951 15.5569 2.14814 16.8383C2.16013 17.5968 2.30006 18.3486 2.56258 19.0605C2.97035 20.1078 3.80189 20.9355 4.8533 21.3373C5.56505 21.6029 6.31762 21.743 7.0774 21.7512C8.36735 21.8257 8.70716 21.8257 11.948 21.8257C15.2169 21.8257 15.5554 21.8097 16.8173 21.7512C17.5774 21.742 18.3303 21.602 19.0428 21.3373C19.5598 21.1368 20.0294 20.8311 20.4217 20.4396C20.814 20.0481 21.1204 19.5794 21.3215 19.0632C21.588 18.3446 21.7279 17.5835 21.7359 16.817H21.7506C21.8079 15.5449 21.8079 15.2056 21.8079 11.9548C21.8079 8.70393 21.7932 8.36194 21.7359 7.09115C21.7239 6.33328 21.5838 5.58288 21.3215 4.87159C21.1209 4.35469 20.8147 3.88517 20.4223 3.49295C20.03 3.10073 19.5602 2.7944 19.0428 2.59348C18.3304 2.32825 17.5775 2.18824 16.8173 2.17964C15.5287 2.10645 15.1916 2.10645 11.948 2.10645ZM11.9933 18.1224C10.7748 18.1232 9.58335 17.7631 8.56975 17.0877C7.55616 16.4123 6.76592 15.4519 6.29898 14.328C5.83205 13.204 5.7094 11.9671 5.94655 10.7735C6.1837 9.57999 6.76999 8.48349 7.63127 7.6227C8.49255 6.76192 9.59013 6.17553 10.7852 5.93769C11.9802 5.69985 13.2191 5.82125 14.345 6.28654C15.471 6.75182 16.4335 7.54009 17.1107 8.55164C17.788 9.5632 18.1497 10.7526 18.1499 11.9694C18.1478 13.5997 17.4987 15.1627 16.3447 16.316C15.1907 17.4693 13.626 18.1189 11.9933 18.1224ZM11.9933 7.97472C11.2027 7.97472 10.4297 8.20885 9.77229 8.64749C9.11486 9.08614 8.60245 9.70961 8.29987 10.4391C7.99729 11.1685 7.91812 11.9712 8.07237 12.7455C8.22663 13.5199 8.60738 14.2312 9.16648 14.7895C9.72558 15.3478 10.4379 15.728 11.2134 15.882C11.9889 16.0361 12.7927 15.957 13.5232 15.6549C14.2537 15.3527 14.8781 14.8411 15.3174 14.1846C15.7567 13.5281 15.9911 12.7563 15.9911 11.9667C15.9887 10.9087 15.5667 9.89478 14.8175 9.14667C14.0683 8.39855 13.0529 7.97718 11.9933 7.97472ZM18.3898 7.02595C18.2011 7.02525 18.0145 6.98745 17.8405 6.91472C17.6664 6.84198 17.5085 6.73574 17.3756 6.60204C17.1072 6.33203 16.9572 5.9666 16.9586 5.58616C16.96 5.20572 17.1127 4.84142 17.3831 4.5734C17.6535 4.30538 18.0195 4.15561 18.4004 4.15702C18.7814 4.15843 19.1463 4.31092 19.4147 4.58093C19.6831 4.85094 19.8331 5.21636 19.8317 5.59681C19.8302 5.97725 19.6775 6.34155 19.4071 6.60957C19.1367 6.87758 18.7708 7.02736 18.3898 7.02595Z" fill="white"></path>
    </symbol>
    <symbol fill="none" xmlns="http://www.w3.org/2000/svg" viewBox="0 0 24 24" id="facebook">
        <path id="Vector" fill-rule="evenodd" clip-rule="evenodd" d="M0 12.067C0 18.033 4.333 22.994 10 24V15.333H7V12H10V9.333C10 6.333 11.933 4.667 14.667 4.667C15.533 4.667 16.467 4.8 17.333 4.933V8H15.8C14.333 8 14 8.733 14 9.667V12H17.2L16.667 15.333H14V24C19.667 22.994 24 18.034 24 12.067C24 5.43 18.6 0 12 0C5.4 0 0 5.43 0 12.067Z" fill="white"></path>
    </symbol>
    <symbol fill="none" xmlns="http://www.w3.org/2000/svg" viewBox="0 0 24 20" id="twitter">
        <path id="Vector" d="M24 2.96027C23.1174 3.33027 22.1693 3.58027 21.1726 3.69327C22.201 3.11106 22.9704 2.19474 23.3373 1.11527C22.371 1.65826 21.3135 2.04047 20.2107 2.24527C19.4691 1.49614 18.4868 0.999597 17.4164 0.832744C16.3459 0.665892 15.2472 0.838062 14.2907 1.32252C13.3343 1.80698 12.5737 2.57663 12.127 3.51197C11.6803 4.44732 11.5725 5.49602 11.8203 6.49527C9.86244 6.40227 7.94711 5.92082 6.19863 5.08218C4.45016 4.24353 2.90761 3.06643 1.6711 1.62727C1.2483 2.31727 1.0052 3.11727 1.0052 3.96927C1.00473 4.73627 1.20437 5.49151 1.58641 6.168C1.96846 6.84449 2.52109 7.42131 3.19528 7.84727C2.4134 7.82373 1.64877 7.62385 0.965031 7.26427V7.32427C0.964952 8.40001 1.35827 9.44265 2.07823 10.2753C2.7982 11.1079 3.80048 11.6792 4.915 11.8923C4.18968 12.078 3.42923 12.1053 2.69109 11.9723C3.00555 12.8979 3.61807 13.7073 4.44291 14.2872C5.26776 14.8671 6.26363 15.1884 7.29111 15.2063C5.5469 16.5017 3.39282 17.2044 1.17537 17.2013C0.782575 17.2014 0.39011 17.1797 0 17.1363C2.25083 18.5054 4.87097 19.2321 7.5469 19.2293C16.6053 19.2293 21.5573 12.1313 21.5573 5.97527C21.5573 5.77527 21.552 5.57327 21.5425 5.37327C22.5057 4.71424 23.3372 3.89817 23.9979 2.96327L24 2.96027Z" fill="white"></path>
    </symbol>
    <symbol fill="none" xmlns="http://www.w3.org/2000/svg" viewBox="0 0 24 24" id="basketball">
        <path id="Vector" d="M12 0C5.38269 0 0 5.38269 0 12C0 18.6173 5.38269 24 12 24C18.6173 24 24 18.6173 24 12C24 5.38269 18.6173 0 12 0ZM19.9356 5.53269C21.3635 7.27788 22.2288 9.49904 22.249 11.9192C21.9115 11.8471 18.5221 11.1606 15.1125 11.5904C15.0404 11.4144 14.9683 11.2385 14.8933 11.0625C14.6798 10.5635 14.4519 10.0644 14.2125 9.57692C18 8.02788 19.7192 5.82692 19.9356 5.53269ZM12 1.76538C14.6048 1.76538 16.9846 2.74327 18.7933 4.34712C18.6087 4.60962 17.0654 6.68365 13.4221 8.05096C11.7433 4.96442 9.88269 2.43173 9.59712 2.05096C10.3846 1.86058 11.1894 1.76538 12 1.76538ZM7.64135 2.74038C7.9125 3.10962 9.74423 5.65096 11.4404 8.66827C6.64615 9.94038 2.42308 9.92308 1.96442 9.91731C2.63077 6.73558 4.77404 4.09327 7.64135 2.74038ZM1.75096 12.0144C1.75096 11.9106 1.75385 11.8038 1.75673 11.7C2.20385 11.7087 7.17115 11.7721 12.2913 10.2404C12.5856 10.8144 12.8654 11.3971 13.1221 11.9798C12.9865 12.0173 12.851 12.0577 12.7183 12.101C7.43077 13.8144 4.61827 18.4731 4.38462 18.8683C2.74904 17.051 1.75096 14.6481 1.75096 12.0144ZM12 22.2635C9.62885 22.2635 7.44519 21.4558 5.70865 20.1C5.89327 19.7221 7.96731 15.7154 13.7481 13.699L13.8144 13.676C15.2538 17.4144 15.8481 20.55 16.001 21.45C14.7365 21.9904 13.3751 22.2672 12 22.2635ZM17.726 20.5125C17.6221 19.8894 17.0769 16.8894 15.7356 13.2058C18.949 12.6923 21.7702 13.5346 22.1192 13.6442C21.6635 16.4942 20.0279 18.9577 17.726 20.5125Z" fill="white"></path>
    </symbol>
    <symbol fill="none" xmlns="http://www.w3.org/2000/svg" viewBox="0 0 24 24" id="github">
        <path id="Vector" fill-rule="evenodd" clip-rule="evenodd" d="M12 0.296021C5.37 0.296021 0 5.66602 0 12.296C0 17.606 3.435 22.091 8.205 23.681C8.805 23.786 9.03 23.426 9.03 23.111C9.03 22.826 9.015 21.881 9.015 20.876C6 21.431 5.22 20.141 4.98 19.466C4.845 19.121 4.26 18.056 3.75 17.771C3.33 17.546 2.73 16.991 3.735 16.976C4.68 16.961 5.355 17.846 5.58 18.206C6.66 20.021 8.385 19.511 9.075 19.196C9.18 18.416 9.495 17.891 9.84 17.591C7.17 17.291 4.38 16.256 4.38 11.666C4.38 10.361 4.845 9.28102 5.61 8.44102C5.49 8.14102 5.07 6.91102 5.73 5.26102C5.73 5.26102 6.735 4.94602 9.03 6.49102C9.99 6.22102 11.01 6.08602 12.03 6.08602C13.05 6.08602 14.07 6.22102 15.03 6.49102C17.325 4.93102 18.33 5.26102 18.33 5.26102C18.99 6.91102 18.57 8.14102 18.45 8.44102C19.215 9.28102 19.68 10.346 19.68 11.666C19.68 16.271 16.875 17.291 14.205 17.591C14.64 17.966 15.015 18.686 15.015 19.811C15.015 21.416 15 22.706 15 23.111C15 23.426 15.225 23.801 15.825 23.681C18.2072 22.8767 20.2772 21.3457 21.7437 19.3034C23.2101 17.2611 23.9993 14.8103 24 12.296C24 5.66602 18.63 0.296021 12 0.296021Z" fill="white"></path>
    </symbol>
</svg>