<svg width="0" height="0" class="hidden">
    <symbol fill="none" xmlns="http://www.w3.org/2000/svg" viewBox="0 0 128 128" id="best-price">
        <g id="bi:shield-check" clip-path="url(#clip0_53_362)">
        <g id="Group">
            <path id="Vector" d="M42.704 12.7199C35.0848 14.8198 27.5172 17.1031 20.008 19.5679C19.3224 19.7901 18.7128 20.2003 18.2489 20.7519C17.785 21.3035 17.4853 21.9743 17.384 22.6879C12.952 55.9439 23.192 80.2079 35.408 96.1919C40.5802 103.027 46.7473 109.049 53.704 114.056C56.472 116.008 58.92 117.416 60.848 118.32C61.808 118.776 62.592 119.08 63.192 119.264C63.4545 119.356 63.725 119.423 64 119.464C64.2718 119.42 64.5394 119.353 64.8 119.264C65.408 119.08 66.192 118.776 67.152 118.32C69.072 117.416 71.528 116 74.296 114.056C81.2527 109.048 87.4198 103.027 92.592 96.1919C104.808 80.2159 115.048 55.9439 110.616 22.6879C110.516 21.974 110.216 21.3027 109.752 20.751C109.288 20.1992 108.678 19.7892 107.992 19.5679C102.784 17.8639 93.992 15.0879 85.296 12.7279C76.416 10.3199 68.248 8.53594 64 8.53594C59.76 8.53594 51.584 10.3199 42.704 12.7279V12.7199ZM40.576 4.47994C49.256 2.11994 58.48 -6.10352e-05 64 -6.10352e-05C69.52 -6.10352e-05 78.744 2.11994 87.424 4.47994C96.304 6.87994 105.256 9.71994 110.52 11.4399C112.721 12.1667 114.672 13.4997 116.15 15.2855C117.627 17.0714 118.571 19.2379 118.872 21.5359C123.64 57.3519 112.576 83.8959 99.152 101.456C93.4596 108.968 86.672 115.583 79.016 121.08C76.3688 122.982 73.5639 124.655 70.632 126.08C68.392 127.136 65.984 128 64 128C62.016 128 59.616 127.136 57.368 126.08C54.4362 124.655 51.6313 122.982 48.984 121.08C41.3283 115.583 34.5407 108.968 28.848 101.456C15.424 83.8959 4.36004 57.3519 9.12804 21.5359C9.42954 19.2379 10.3732 17.0714 11.8506 15.2855C13.328 13.4997 15.2792 12.1667 17.48 11.4399C25.1216 8.93441 32.8225 6.61374 40.576 4.47994Z" fill="#43B97F"></path>
            <path id="Vector_2" d="M86.8321 41.1679C87.2046 41.5395 87.5001 41.9809 87.7017 42.4669C87.9034 42.9528 88.0072 43.4738 88.0072 43.9999C88.0072 44.5261 87.9034 45.0471 87.7017 45.533C87.5001 46.019 87.2046 46.4604 86.8321 46.8319L62.8321 70.8319C62.4605 71.2045 62.0191 71.5 61.5331 71.7016C61.0472 71.9033 60.5262 72.0071 60 72.0071C59.4739 72.0071 58.9529 71.9033 58.467 71.7016C57.981 71.5 57.5396 71.2045 57.168 70.8319L45.168 58.8319C44.7961 58.46 44.5011 58.0185 44.2999 57.5326C44.0986 57.0467 43.995 56.5259 43.995 55.9999C43.995 55.474 44.0986 54.9532 44.2999 54.4673C44.5011 53.9814 44.7961 53.5398 45.168 53.1679C45.54 52.796 45.9815 52.501 46.4674 52.2998C46.9533 52.0985 47.4741 51.9949 48 51.9949C48.526 51.9949 49.0468 52.0985 49.5327 52.2998C50.0186 52.501 50.4601 52.796 50.8321 53.1679L60 62.3439L81.168 41.1679C81.5396 40.7954 81.981 40.4999 82.467 40.2982C82.9529 40.0966 83.4739 39.9928 84 39.9928C84.5262 39.9928 85.0472 40.0966 85.5331 40.2982C86.0191 40.4999 86.4605 40.7954 86.8321 41.1679Z" fill="#43B97F"></path>
        </g>
        </g>
        <defs>
        <clipPath id="clip0_53_362">
            <rect width="128" height="128" fill="white"></rect>
        </clipPath>
        </defs>
    </symbol>
    <symbol fill="none" xmlns="http://www.w3.org/2000/svg" viewBox="0 0 128 124" id="easy-booking">
        <g id="healthicons:i-schedule-school-date-time-outline" clip-path="url(#clip0_53_371)">
        <g id="Group">
            <path id="Vector" fill-rule="evenodd" clip-rule="evenodd" d="M103.111 116.61C107.826 116.61 112.348 114.816 115.682 111.623C119.016 108.43 120.889 104.099 120.889 99.5828C120.889 95.0669 119.016 90.736 115.682 87.5428C112.348 84.3496 107.826 82.5557 103.111 82.5557C98.3961 82.5557 93.8742 84.3496 90.5403 87.5428C87.2063 90.736 85.3333 95.0669 85.3333 99.5828C85.3333 104.099 87.2063 108.43 90.5403 111.623C93.8742 114.816 98.3961 116.61 103.111 116.61ZM103.111 123.421C109.712 123.421 116.043 120.909 120.71 116.439C125.378 111.968 128 105.905 128 99.5828C128 93.2606 125.378 87.1973 120.71 82.7268C116.043 78.2563 109.712 75.7448 103.111 75.7448C96.5101 75.7448 90.1795 78.2563 85.512 82.7268C80.8444 87.1973 78.2222 93.2606 78.2222 99.5828C78.2222 105.905 80.8444 111.968 85.512 116.439C90.1795 120.909 96.5101 123.421 103.111 123.421Z" fill="#43B97F"></path>
            <path id="Vector_2" fill-rule="evenodd" clip-rule="evenodd" d="M103.111 87.6638C104.054 87.6638 104.958 88.0226 105.625 88.6613C106.292 89.2999 106.667 90.1661 106.667 91.0693V98.173L109.18 100.581C109.828 101.223 110.186 102.083 110.178 102.976C110.17 103.869 109.796 104.723 109.137 105.354C108.478 105.986 107.586 106.344 106.654 106.352C105.722 106.359 104.823 106.016 104.153 105.396L99.5555 100.993V91.0693C99.5555 90.1661 99.9301 89.2999 100.597 88.6613C101.264 88.0226 102.168 87.6638 103.111 87.6638ZM28.4444 58.7177H21.3333V65.5286H28.4444V58.7177ZM21.3333 51.9069C19.4473 51.9069 17.6386 52.6244 16.305 53.9017C14.9714 55.179 14.2222 56.9114 14.2222 58.7177V65.5286C14.2222 67.3349 14.9714 69.0673 16.305 70.3446C17.6386 71.6218 19.4473 72.3394 21.3333 72.3394H28.4444C30.3304 72.3394 32.1391 71.6218 33.4727 70.3446C34.8063 69.0673 35.5555 67.3349 35.5555 65.5286V58.7177C35.5555 56.9114 34.8063 55.179 33.4727 53.9017C32.1391 52.6244 30.3304 51.9069 28.4444 51.9069H21.3333ZM56.8888 58.7177H49.7777V65.5286H56.8888V58.7177ZM49.7777 51.9069C47.8917 51.9069 46.083 52.6244 44.7494 53.9017C43.4158 55.179 42.6666 56.9114 42.6666 58.7177V65.5286C42.6666 67.3349 43.4158 69.0673 44.7494 70.3446C46.083 71.6218 47.8917 72.3394 49.7777 72.3394H56.8888C58.7748 72.3394 60.5836 71.6218 61.9171 70.3446C63.2507 69.0673 63.9999 67.3349 63.9999 65.5286V58.7177C63.9999 56.9114 63.2507 55.179 61.9171 53.9017C60.5836 52.6244 58.7748 51.9069 56.8888 51.9069H49.7777ZM85.3333 58.7177H78.2222V65.5286H85.3333V58.7177ZM78.2222 51.9069C76.3362 51.9069 74.5274 52.6244 73.1939 53.9017C71.8603 55.179 71.1111 56.9114 71.1111 58.7177V65.5286C71.1111 67.3349 71.8603 69.0673 73.1939 70.3446C74.5274 71.6218 76.3362 72.3394 78.2222 72.3394H85.3333C87.2193 72.3394 89.028 71.6218 90.3616 70.3446C91.6952 69.0673 92.4444 67.3349 92.4444 65.5286V58.7177C92.4444 56.9114 91.6952 55.179 90.3616 53.9017C89.028 52.6244 87.2193 51.9069 85.3333 51.9069H78.2222ZM28.4444 85.9611H21.3333V92.772H28.4444V85.9611ZM21.3333 79.1503C19.4473 79.1503 17.6386 79.8678 16.305 81.1451C14.9714 82.4224 14.2222 84.1548 14.2222 85.9611V92.772C14.2222 94.5783 14.9714 96.3107 16.305 97.588C17.6386 98.8653 19.4473 99.5828 21.3333 99.5828H28.4444C30.3304 99.5828 32.1391 98.8653 33.4727 97.588C34.8063 96.3107 35.5555 94.5783 35.5555 92.772V85.9611C35.5555 84.1548 34.8063 82.4224 33.4727 81.1451C32.1391 79.8678 30.3304 79.1503 28.4444 79.1503H21.3333ZM56.8888 85.9611H49.7777V92.772H56.8888V85.9611ZM49.7777 79.1503C47.8917 79.1503 46.083 79.8678 44.7494 81.1451C43.4158 82.4224 42.6666 84.1548 42.6666 85.9611V92.772C42.6666 94.5783 43.4158 96.3107 44.7494 97.588C46.083 98.8653 47.8917 99.5828 49.7777 99.5828H56.8888C58.7748 99.5828 60.5836 98.8653 61.9171 97.588C63.2507 96.3107 63.9999 94.5783 63.9999 92.772V85.9611C63.9999 84.1548 63.2507 82.4224 61.9171 81.1451C60.5836 79.8678 58.7748 79.1503 56.8888 79.1503H49.7777Z" fill="#43B97F"></path>
            <path id="Vector_3" fill-rule="evenodd" clip-rule="evenodd" d="M7.11111 21.258C7.11111 20.3549 7.48571 19.4887 8.15251 18.85C8.81931 18.2114 9.72367 17.8526 10.6667 17.8526H28.4444V11.0417H10.6667C7.83769 11.0417 5.12458 12.1181 3.12419 14.034C1.12381 15.9499 0 18.5485 0 21.258V102.988C0 105.698 1.12381 108.296 3.12419 110.212C5.12458 112.128 7.83769 113.205 10.6667 113.205H82.6844C81.1682 111.124 80.0098 108.825 79.2533 106.394H10.6667C9.72367 106.394 8.81931 106.035 8.15251 105.396C7.48571 104.758 7.11111 103.891 7.11111 102.988V21.258ZM99.5556 75.9832C101.914 75.6601 104.308 75.6601 106.667 75.9832V21.258C106.667 18.5485 105.543 15.9499 103.542 14.034C101.542 12.1181 98.829 11.0417 96 11.0417H85.3333V17.8526H96C96.943 17.8526 97.8474 18.2114 98.5142 18.85C99.181 19.4887 99.5556 20.3549 99.5556 21.258V75.9832ZM35.5556 17.8526H73.1129V11.0417H35.5556V17.8526Z" fill="#43B97F"></path>
            <path id="Vector_4" fill-rule="evenodd" clip-rule="evenodd" d="M106.667 41.6906H7.11133V34.8797H106.667V41.6906Z" fill="#43B97F"></path>
            <path id="Vector_5" d="M21.3334 4.23087C21.3334 3.32769 21.708 2.46151 22.3748 1.82287C23.0416 1.18423 23.9459 0.825439 24.8889 0.825439C25.8319 0.825439 26.7363 1.18423 27.4031 1.82287C28.0699 2.46151 28.4445 3.32769 28.4445 4.23087V21.258C28.4445 22.1612 28.0699 23.0274 27.4031 23.666C26.7363 24.3046 25.8319 24.6634 24.8889 24.6634C23.9459 24.6634 23.0416 24.3046 22.3748 23.666C21.708 23.0274 21.3334 22.1612 21.3334 21.258V4.23087ZM71.1112 4.23087C71.1112 3.32769 71.4858 2.46151 72.1525 1.82287C72.8193 1.18423 73.7237 0.825439 74.6667 0.825439C75.6097 0.825439 76.5141 1.18423 77.1809 1.82287C77.8477 2.46151 78.2223 3.32769 78.2223 4.23087V21.258C78.2223 22.1612 77.8477 23.0274 77.1809 23.666C76.5141 24.3046 75.6097 24.6634 74.6667 24.6634C73.7237 24.6634 72.8193 24.3046 72.1525 23.666C71.4858 23.0274 71.1112 22.1612 71.1112 21.258V4.23087Z" fill="#43B97F"></path>
        </g>
        </g>
        <defs>
        <clipPath id="clip0_53_371">
            <rect width="128" height="122.595" fill="white" transform="translate(0 0.825439)"></rect>
        </clipPath>
        </defs>
    </symbol>
    <symbol fill="none" xmlns="http://www.w3.org/2000/svg" viewBox="0 0 128 124" id="customer-service">
        <g id="ri:customer-service-2-line">
            <path id="Vector" d="M106.336 41.6906H112C114.829 41.6906 117.542 42.7669 119.543 44.6828C121.543 46.5988 122.667 49.1973 122.667 51.9068V72.3394C122.667 75.0489 121.543 77.6475 119.543 79.5634C117.542 81.4793 114.829 82.5557 112 82.5557H106.336C105.036 92.4313 100.017 101.513 92.2227 108.096C84.4279 114.68 74.3926 118.312 64 118.313V108.096C72.487 108.096 80.6263 104.867 86.6275 99.1196C92.6286 93.3718 96 85.5761 96 77.4475V46.7987C96 38.6701 92.6286 30.8745 86.6275 25.1267C80.6263 19.3789 72.487 16.1499 64 16.1499C55.5131 16.1499 47.3738 19.3789 41.3726 25.1267C35.3715 30.8745 32 38.6701 32 46.7987V82.5557H16C13.1711 82.5557 10.458 81.4793 8.45757 79.5634C6.45718 77.6475 5.33337 75.0489 5.33337 72.3394V51.9068C5.33337 49.1973 6.45718 46.5988 8.45757 44.6828C10.458 42.7669 13.1711 41.6906 16 41.6906H21.664C22.9655 31.816 27.9845 22.7357 35.7791 16.1533C43.5737 9.57099 53.6083 5.93909 64 5.93909C74.3918 5.93909 84.4263 9.57099 92.221 16.1533C100.016 22.7357 105.035 31.816 106.336 41.6906ZM16 51.9068V72.3394H21.3334V51.9068H16ZM106.667 51.9068V72.3394H112V51.9068H106.667ZM41.3867 81.4574L47.04 72.794C52.1231 75.8438 58.002 77.4568 64 77.4475C69.9981 77.4568 75.877 75.8438 80.96 72.794L86.6134 81.4574C79.8361 85.5243 71.9976 87.6756 64 87.6638C56.0025 87.6756 48.164 85.5243 41.3867 81.4574Z" fill="#43B97F"></path>
        </g>
    </symbol>
</svg>