<svg width="13" height="13" viewBox="0 0 13 13" fill="none" xmlns="http://www.w3.org/2000/svg">
<g id="Frame" clip-path="url(#clip0_1_393)">
<path id="Vector" d="M1.5 11.5C1.5 10.4391 1.92143 9.42172 2.67157 8.67157C3.42172 7.92143 4.43913 7.5 5.5 7.5C6.56087 7.5 7.57828 7.92143 8.32843 8.67157C9.07857 9.42172 9.5 10.4391 9.5 11.5H8.5C8.5 10.7043 8.18393 9.94129 7.62132 9.37868C7.05871 8.81607 6.29565 8.5 5.5 8.5C4.70435 8.5 3.94129 8.81607 3.37868 9.37868C2.81607 9.94129 2.5 10.7043 2.5 11.5H1.5ZM5.5 7C3.8425 7 2.5 5.6575 2.5 4C2.5 2.3425 3.8425 1 5.5 1C7.1575 1 8.5 2.3425 8.5 4C8.5 5.6575 7.1575 7 5.5 7ZM5.5 6C6.605 6 7.5 5.105 7.5 4C7.5 2.895 6.605 2 5.5 2C4.395 2 3.5 2.895 3.5 4C3.5 5.105 4.395 6 5.5 6ZM9.642 7.8515C10.3447 8.16796 10.941 8.68062 11.3593 9.32785C11.7776 9.97509 12.0001 10.7294 12 11.5H11C11.0001 10.922 10.8333 10.3562 10.5195 9.87079C10.2058 9.38533 9.75854 9.00083 9.2315 8.7635L9.6415 7.8515H9.642ZM9.298 2.2065C9.80176 2.41415 10.2325 2.76677 10.5355 3.21961C10.8385 3.67246 11.0002 4.20512 11 4.75C11.0002 5.43617 10.7438 6.09761 10.2813 6.60441C9.8187 7.11121 9.18334 7.42673 8.5 7.489V6.4825C8.87047 6.42944 9.21418 6.25901 9.48065 5.99623C9.74713 5.73345 9.92235 5.39216 9.98058 5.02247C10.0388 4.65277 9.97699 4.27415 9.80419 3.94218C9.6314 3.6102 9.35672 3.34237 9.0205 3.178L9.298 2.2065Z" fill="#023F76"/>
</g>
<defs>
<clipPath id="clip0_1_393">
<rect width="12" height="12" fill="white" transform="translate(0.5 0.5)"/>
</clipPath>
</defs>
</svg>
